<svg xmlns="http://www.w3.org/2000/svg" xmlns:xlink="http://www.w3.org/1999/xlink" width="1024" zoomAndPan="magnify" viewBox="0 0 768 767.999994" height="1024" preserveAspectRatio="xMidYMid meet" version="1.0"><defs><clipPath id="5ad765b2f5"><path d="M 14.5625 115.121094 L 753.3125 115.121094 L 753.3125 652.871094 L 14.5625 652.871094 Z M 14.5625 115.121094 " clip-rule="nonzero"/></clipPath></defs><rect x="-76.8" width="921.6" fill="#ffffff" y="-76.799999" height="921.599993" fill-opacity="1"/><rect x="-76.8" width="921.6" fill="#ffffff" y="-76.799999" height="921.599993" fill-opacity="1"/><rect x="-76.8" width="921.6" fill="#ffffff" y="-76.799999" height="921.599993" fill-opacity="1"/><g clip-path="url(#5ad765b2f5)"><path fill="#000000" d="M 729.429688 596.390625 C 729.429688 606.917969 720.722656 615.496094 709.546875 615.511719 L 383.902344 628.984375 L 57.773438 615.496094 C 47.089844 615.496094 38.386719 606.917969 38.386719 596.390625 L 38.386719 196.027344 C 38.386719 185.449219 47.089844 176.851562 57.773438 176.851562 L 72.007812 176.851562 L 72.007812 582.421875 C 72.84375 590.8125 79.457031 593.820312 84.535156 594.328125 C 85.597656 594.433594 193.511719 588.824219 277.304688 588.496094 C 345.742188 588.496094 382.34375 602.84375 383.878906 602.84375 C 385.464844 602.84375 422.042969 588.496094 492.667969 588.496094 C 574.28125 588.824219 682.1875 594.34375 683.246094 594.328125 C 691.175781 594.226562 695.535156 588.382812 695.777344 582.421875 L 695.777344 176.847656 L 710.046875 176.847656 C 720.726562 176.847656 729.433594 185.449219 729.433594 196.027344 Z M 352.257812 570.710938 C 333.878906 567.492188 308.394531 564.664062 275.027344 564.664062 C 229.417969 564.84375 176.082031 566.613281 137.144531 568.15625 C 175.46875 556.476562 229.789062 542.882812 275.625 542.671875 C 311.074219 542.671875 336.175781 557.09375 352.257812 570.710938 Z M 95.84375 184.292969 C 121.972656 173.789062 213.097656 139.003906 274.902344 139.003906 C 335.132812 139.667969 364.105469 166.058594 371.988281 174.707031 L 371.988281 556.195312 C 352.816406 538.75 320.867188 518.839844 274.996094 518.839844 C 209.285156 519.128906 129.628906 544.589844 95.84375 556.53125 Z M 630.753906 568.164062 C 591.527344 566.613281 537.472656 564.839844 490.503906 564.664062 C 458.457031 564.664062 433.742188 567.433594 415.722656 570.609375 C 431.867188 557.015625 457.066406 542.671875 492.71875 542.671875 C 538.277344 542.875 592.480469 556.484375 630.753906 568.164062 Z M 395.816406 174.722656 C 403.800781 166.003906 432.988281 139.667969 494.511719 138.992188 C 554.914062 138.992188 645.835938 173.777344 671.949219 184.292969 L 671.949219 556.53125 C 638.152344 544.589844 558.410156 519.128906 492.171875 518.839844 C 446.714844 518.839844 414.953125 538.714844 395.816406 556.136719 Z M 710.046875 153.015625 L 657.167969 153.015625 C 616.960938 138.132812 546.261719 115.171875 492.652344 115.171875 C 433.144531 115.824219 399.304688 139.015625 384.117188 153.015625 L 383.652344 153.015625 C 368.34375 139.019531 334.128906 115.824219 273.304688 115.160156 C 220.992188 115.160156 150.644531 138.132812 110.574219 153.015625 L 57.773438 153.015625 C 33.949219 153.015625 14.5625 172.3125 14.5625 196.027344 L 14.5625 596.386719 C 14.5625 620.054688 33.949219 639.320312 57.257812 639.320312 C 57.28125 639.320312 383.421875 652.816406 383.421875 652.816406 C 383.574219 652.832031 383.742188 652.832031 383.902344 652.832031 C 384.066406 652.832031 384.226562 652.832031 384.398438 652.816406 L 710.046875 639.328125 C 733.863281 639.328125 753.257812 620.0625 753.257812 596.386719 L 753.257812 196.027344 C 753.257812 172.308594 733.863281 153.015625 710.046875 153.015625 " fill-opacity="1" fill-rule="nonzero"/></g></svg>