<svg xmlns="http://www.w3.org/2000/svg" xmlns:xlink="http://www.w3.org/1999/xlink" width="1024" zoomAndPan="magnify" viewBox="0 0 768 767.999994" height="1024" preserveAspectRatio="xMidYMid meet" version="1.0"><defs><clipPath id="028851795c"><path d="M 0 162.675781 L 768 162.675781 L 768 605.175781 L 0 605.175781 Z M 0 162.675781 " clip-rule="nonzero"/></clipPath></defs><rect x="-76.8" width="921.6" fill="#ffffff" y="-76.799999" height="921.599993" fill-opacity="1"/><rect x="-76.8" width="921.6" fill="#ffffff" y="-76.799999" height="921.599993" fill-opacity="1"/><rect x="-76.8" width="921.6" fill="#00285d" y="-76.799999" height="921.599993" fill-opacity="1"/><g clip-path="url(#028851795c)"><path fill="#e8d743" d="M 265.285156 466.417969 L 164.757812 450.109375 L 228.113281 368.304688 C 260.953125 396.769531 265.039062 430.933594 265.285156 466.417969 Z M 292.9375 472.402344 C 293.097656 468.855469 293.671875 463.15625 293.671875 459.164062 C 293.671875 418.683594 280.496094 379.347656 244.742188 346.65625 L 281.980469 302.339844 L 339.617188 477.105469 L 292.9375 472.394531 Z M 514.164062 298.460938 L 510.96875 288.734375 L 305.679688 288.46875 L 360.289062 453.015625 L 362.648438 435.847656 L 356.363281 435.847656 L 357.152344 424.925781 L 384.628906 424.925781 L 383.839844 435.070312 L 376.773438 435.070312 L 375.207031 453.796875 C 375.207031 453.796875 513.375 299.230469 514.160156 298.453125 Z M 605.082031 456.527344 C 577.515625 434.761719 556.058594 414.019531 540.582031 372.507812 C 516.160156 394.53125 502.222656 426.382812 502.222656 459.160156 C 502.222656 524.246094 555.636719 577.339844 621.125 577.339844 C 686.609375 577.339844 740.019531 524.25 740.019531 459.160156 C 740.019531 394.066406 686.609375 340.980469 621.125 340.980469 C 600.222656 340.980469 578.859375 346.980469 561.632812 357.085938 C 573.292969 393.710938 584.636719 412.601562 620.515625 441.3125 C 629.226562 441.675781 635.847656 448.628906 635.847656 456.917969 C 635.847656 465.515625 628.796875 472.523438 620.148438 472.523438 C 611.5 472.523438 605.082031 465.515625 605.082031 456.527344 Z M 261.085938 491.523438 C 247.636719 541.332031 199.796875 577.339844 146.851562 577.339844 C 81.363281 577.339844 27.953125 524.253906 27.953125 459.160156 C 27.953125 394.066406 81.363281 340.976562 146.851562 340.976562 C 167.753906 340.976562 191.933594 345.878906 209.578125 356.144531 L 145.042969 441.3125 C 137.152344 441.433594 130.277344 448.445312 130.277344 456.917969 C 130.277344 465.515625 137.335938 472.523438 145.980469 472.523438 C 148.375 472.523438 150.886719 471.914062 153.007812 470.921875 L 261.085938 491.519531 Z M 553.15625 329.726562 L 511.039062 214.234375 L 524.382812 191.605469 L 497.691406 162.734375 L 440.382812 162.734375 L 439.597656 179.121094 L 489.839844 179.121094 L 500.046875 190.042969 L 488.269531 211.113281 L 503.078125 263.28125 L 297.414062 263.28125 L 294.273438 253.738281 C 310.804688 251.601562 339.3125 241.476562 346.121094 235.601562 C 352.929688 229.722656 346.96875 224.3125 339.214844 224.0625 C 298.617188 222.347656 238.3125 218.96875 226.855469 218.917969 C 215.402344 218.863281 214.226562 224.59375 221.894531 232.929688 C 229.5625 241.269531 236.265625 248.773438 265.320312 253.25 L 273.171875 274.316406 L 224.503906 334.246094 C 201.566406 320.402344 173.820312 313.203125 146.863281 313.203125 C 65.988281 313.203125 0.0273438 378.765625 0.0273438 459.15625 C 0.0273438 539.542969 65.992188 605.105469 146.863281 605.105469 C 213.398438 605.105469 271.902344 559.496094 289.097656 496.460938 L 333.816406 504.449219 C 335.734375 509.6875 340.195312 513.707031 345.523438 516.851562 L 337.546875 554.457031 L 327.34375 554.457031 L 326.558594 564.601562 L 358.742188 566.160156 L 358.742188 555.234375 L 350.890625 555.234375 L 360.613281 517.652344 C 375.082031 515.300781 382.664062 502.992188 378.355469 490.773438 L 524.445312 326.539062 L 530.984375 344.160156 C 495.527344 371.921875 474.308594 414.679688 474.308594 459.152344 C 474.308594 539.539062 540.269531 605.101562 621.144531 605.101562 C 702.015625 605.101562 767.980469 539.539062 767.980469 459.152344 C 767.980469 378.761719 702.015625 313.199219 621.144531 313.199219 C 597.625 313.199219 573.535156 318.902344 553.164062 329.722656 Z M 553.15625 329.726562 " fill-opacity="1" fill-rule="evenodd"/></g></svg>