<svg xmlns="http://www.w3.org/2000/svg" xmlns:xlink="http://www.w3.org/1999/xlink" width="1024" zoomAndPan="magnify" viewBox="0 0 768 767.999994" height="1024" preserveAspectRatio="xMidYMid meet" version="1.0"><defs><clipPath id="934ace0679"><path d="M 0 326 L 461 326 L 461 720.226562 L 0 720.226562 Z M 0 326 " clip-rule="nonzero"/></clipPath><clipPath id="095aad6763"><path d="M 0 329 L 459 329 L 459 720.226562 L 0 720.226562 Z M 0 329 " clip-rule="nonzero"/></clipPath></defs><rect x="-76.8" width="921.6" fill="#ffffff" y="-76.799999" height="921.599993" fill-opacity="1"/><rect x="-76.8" width="921.6" fill="#ffffff" y="-76.799999" height="921.599993" fill-opacity="1"/><rect x="-76.8" width="921.6" fill="#7ed957" y="-76.799999" height="921.599993" fill-opacity="1"/><path stroke-linecap="butt" transform="matrix(1.622963, 0, 0, 1.622257, -31.55979, -24.714053)" fill="none" stroke-linejoin="miter" d="M 181.259147 52.749615 C 199.705342 44.562718 220.101095 50.177966 237.548441 58.7718 C 257.017552 68.942815 276.907864 83.744243 284.893834 106.978174 C 288.477652 116.458119 286.126148 127.52247 279.969393 134.953282 C 275.126786 139.5548 268.235938 138.271383 262.430586 137.61884 C 249.255421 134.474108 241.187617 121.442495 230.951231 112.906451 C 222.074722 104.221117 212.62538 94.818225 200.612729 92.41513 C 189.89497 90.445459 180.585226 98.331367 173.71604 106.51104 C 163.376159 120.688819 156.846341 137.729603 151.755827 154.934126 C 148.446391 169.937819 141.408725 184.255256 142.25594 200.089678 C 141.249872 185.483291 137.502387 171.266985 137.141357 156.588361 C 136.472249 137.662182 138.631205 118.632463 142.905793 100.332341 C 150.744944 80.722315 162.86109 61.312146 181.259147 52.749615 Z M 181.259147 52.749615 " stroke="#000000" stroke-width="0.1" stroke-opacity="1" stroke-miterlimit="10"/><path fill="#231f20" d="M 262.617188 60.859375 C 292.554688 47.578125 325.65625 56.6875 353.972656 70.628906 C 385.570312 87.128906 417.851562 111.140625 430.8125 148.832031 C 436.628906 164.210938 432.8125 182.160156 422.820312 194.214844 C 414.960938 201.679688 403.777344 199.597656 394.355469 198.539062 C 372.972656 193.4375 359.878906 172.296875 343.265625 158.449219 C 328.859375 144.359375 313.523438 129.105469 294.027344 125.207031 C 276.632812 122.011719 261.523438 134.804688 250.375 148.074219 C 233.59375 171.074219 222.996094 198.71875 214.734375 226.628906 C 209.363281 250.96875 197.941406 274.195312 199.316406 299.882812 C 197.683594 276.1875 191.601562 253.125 191.015625 229.3125 C 189.929688 198.609375 193.433594 167.738281 200.371094 138.050781 C 213.09375 106.238281 232.757812 74.75 262.617188 60.859375 Z M 262.617188 60.859375 " fill-opacity="1" fill-rule="nonzero"/><path stroke-linecap="butt" transform="matrix(1.622963, 0, 0, 1.622257, -31.55979, -24.714053)" fill="none" stroke-linejoin="miter" d="M 349.450701 65.292422 C 362.806381 63.570766 376.843203 69.395502 385.806359 80.575432 C 391.886094 88.897172 395.968133 99.378808 395.903147 110.207183 C 394.726192 123.376047 388.7668 136.385989 378.821644 143.954053 C 367.100224 153.190799 351.075333 155.11472 337.885726 148.712085 C 318.289052 140.433687 306.875709 112.386342 316.948429 91.199135 C 322.61659 76.787789 335.68104 67.408976 349.450701 65.292422 Z M 349.450701 65.292422 " stroke="#000000" stroke-width="0.1" stroke-opacity="1" stroke-miterlimit="10"/><path fill="#231f20" d="M 535.585938 81.207031 C 557.261719 78.414062 580.042969 87.863281 594.589844 106 C 604.457031 119.5 611.082031 136.503906 610.976562 154.070312 C 609.066406 175.433594 599.394531 196.539062 583.253906 208.816406 C 564.230469 223.800781 538.222656 226.921875 516.816406 216.535156 C 485.011719 203.105469 466.488281 157.605469 482.835938 123.234375 C 492.035156 99.855469 513.238281 84.640625 535.585938 81.207031 Z M 535.585938 81.207031 " fill-opacity="1" fill-rule="nonzero"/><path stroke-linecap="butt" transform="matrix(1.622963, 0, 0, 1.622257, -31.55979, -24.714053)" fill="none" stroke-linejoin="miter" d="M 488.47108 141.830276 C 489.260531 141.782117 490.059609 141.758038 490.863502 141.774894 C 490.528948 149.586156 492.36057 157.390195 491.200462 165.170155 C 489.344771 178.543692 484.502164 191.103355 479.255204 203.215146 C 467.731146 231.799455 445.934599 255.404205 419.512062 266.514305 C 407.379068 271.272337 392.988437 270.906335 382.056467 262.78686 C 364.378062 249.952695 350.476024 230.378788 344.393883 207.785361 C 340.545309 195.584477 340.412932 180.929931 347.029397 169.870397 C 350.34124 165.02568 354.810784 159.612697 360.78943 159.976292 C 366.967846 160.61198 372.489189 164.736731 376.222233 170.113596 C 385.004874 182.935721 386.843717 199.610504 394.085966 213.299476 C 400.144039 222.126878 409.93997 232.613329 420.770851 227.450768 C 433.823267 221.315412 444.80578 210.877118 455.420044 200.645905 C 468.838303 187.814148 478.176929 170.686679 485.630982 153.05114 C 487.128051 149.511511 488.172629 145.740723 488.468673 141.830276 Z M 488.47108 141.830276 " stroke="#000000" stroke-width="0.1" stroke-opacity="1" stroke-miterlimit="10"/><path fill="#231f20" d="M 761.210938 205.371094 C 762.492188 205.292969 763.789062 205.253906 765.09375 205.28125 C 764.550781 217.953125 767.523438 230.613281 765.640625 243.234375 C 762.628906 264.929688 754.769531 285.304688 746.253906 304.953125 C 727.550781 351.324219 692.175781 389.617188 649.292969 407.640625 C 629.601562 415.359375 606.246094 414.765625 588.503906 401.59375 C 559.8125 380.773438 537.25 349.019531 527.378906 312.367188 C 521.132812 292.574219 520.917969 268.800781 531.65625 250.859375 C 537.03125 243 544.285156 234.21875 553.988281 234.808594 C 564.015625 235.839844 572.976562 242.53125 579.035156 251.253906 C 593.289062 272.054688 596.273438 299.105469 608.027344 321.3125 C 617.859375 335.632812 633.757812 352.644531 651.335938 344.269531 C 672.519531 334.316406 690.34375 317.382812 707.570312 300.785156 C 729.347656 279.96875 744.503906 252.183594 756.601562 223.574219 C 759.03125 217.832031 760.726562 211.714844 761.207031 205.371094 Z M 761.210938 205.371094 " fill-opacity="1" fill-rule="nonzero"/><g clip-path="url(#934ace0679)"><path stroke-linecap="butt" transform="matrix(1.622963, 0, 0, 1.622257, -31.55979, -24.714053)" fill="none" stroke-linejoin="miter" d="M 162.398973 223.810007 C 170.163511 216.49959 181.627397 217.209924 190.657946 220.865132 C 199.727004 225.153621 209.284655 228.466907 217.564262 234.566145 C 230.424128 243.725838 242.711161 253.997985 253.703303 265.799156 C 266.12512 276.962231 277.658805 289.415945 287.54379 303.39146 C 294.836583 312.931602 302.451896 324.077821 301.879063 337.28762 C 296.490098 356.538867 281.654197 370.613106 266.221395 380.032853 C 245.753436 391.602864 222.921938 396.19475 201.045964 403.295679 C 191.584588 406.690834 181.653873 407.9285 171.814619 409.105968 C 160.673252 409.775367 149.474121 412.330161 138.339975 410.138962 C 145.473915 404.374423 154.112145 401.80759 161.951296 397.538365 C 184.467495 386.731661 205.65992 372.874134 227.598472 360.73104 C 236.891368 355.729809 245.994122 349.353661 251.308474 339.168198 C 251.024465 336.931249 250.745268 334.699116 250.478107 332.471799 C 244.232298 325.443107 236.523118 320.417797 228.573251 316.160611 C 219.302016 324.682207 208.610733 331.164303 200.068778 340.677959 C 176.628344 360.078496 150.716062 375.286861 125.752084 392.069999 C 92.145062 413.069389 60.352815 437.550619 26.107975 457.309935 C 24.112686 458.104545 22.06926 458.723378 19.977696 459.168842 C 33.126386 443.238104 48.441253 429.679158 61.387766 413.5293 C 80.07224 391.76901 98.759121 369.996681 118.2523 349.12491 C 138.843009 327.082894 158.853664 304.390743 177.932863 280.728203 C 169.884315 272.454621 159.49389 264.833584 157.048517 252.146302 C 154.723488 242.550777 156.090586 231.216741 162.398973 223.807599 Z M 162.398973 223.810007 " stroke="#000000" stroke-width="0.1" stroke-opacity="1" stroke-miterlimit="10"/></g><g clip-path="url(#095aad6763)"><path fill="#231f20" d="M 232.007812 338.363281 C 244.609375 326.503906 263.214844 327.65625 277.871094 333.585938 C 292.589844 340.542969 308.101562 345.917969 321.539062 355.8125 C 342.410156 370.671875 362.351562 387.335938 380.191406 406.480469 C 400.351562 424.589844 419.070312 444.792969 435.113281 467.464844 C 446.949219 482.941406 459.308594 501.023438 458.378906 522.453125 C 449.632812 553.683594 425.554688 576.515625 400.507812 591.796875 C 367.289062 610.566406 330.234375 618.015625 294.730469 629.535156 C 279.375 635.042969 263.257812 637.050781 247.289062 638.960938 C 229.207031 640.046875 211.03125 644.191406 192.960938 640.636719 C 204.539062 631.285156 218.558594 627.121094 231.28125 620.195312 C 267.824219 602.664062 302.21875 580.183594 337.824219 560.484375 C 352.90625 552.371094 367.679688 542.027344 376.304688 525.503906 C 375.84375 521.875 375.390625 518.253906 374.957031 514.640625 C 364.820312 503.238281 352.308594 495.085938 339.40625 488.179688 C 324.359375 502.003906 307.007812 512.519531 293.144531 527.953125 C 255.101562 559.425781 213.046875 584.097656 172.53125 611.324219 C 117.988281 645.390625 66.390625 685.105469 10.8125 717.160156 C 7.574219 718.449219 4.257812 719.453125 0.863281 720.175781 C 22.203125 694.332031 47.058594 672.335938 68.070312 646.136719 C 98.394531 610.835938 128.722656 575.515625 160.359375 541.65625 C 193.777344 505.898438 226.253906 469.085938 257.21875 430.699219 C 244.15625 417.277344 227.292969 404.914062 223.324219 384.332031 C 219.550781 368.765625 221.769531 350.378906 232.007812 338.359375 Z M 232.007812 338.363281 " fill-opacity="1" fill-rule="nonzero"/></g></svg>