<svg xmlns="http://www.w3.org/2000/svg" xmlns:xlink="http://www.w3.org/1999/xlink" width="1024" zoomAndPan="magnify" viewBox="0 0 768 767.999994" height="1024" preserveAspectRatio="xMidYMid meet" version="1.0"><defs><clipPath id="45452438e5"><path d="M 30.023438 285 L 225 285 L 225 374 L 30.023438 374 Z M 30.023438 285 " clip-rule="nonzero"/></clipPath></defs><rect x="-76.8" width="921.6" fill="#ffffff" y="-76.799999" height="921.599993" fill-opacity="1"/><rect x="-76.8" width="921.6" fill="#ffffff" y="-76.799999" height="921.599993" fill-opacity="1"/><rect x="-76.8" width="921.6" fill="#ffde59" y="-76.799999" height="921.599993" fill-opacity="1"/><path fill="#ec5f3a" d="M 384.023438 699.550781 C 304.929688 699.550781 225.136719 677.523438 225.136719 628.355469 L 225.136719 373.875 C 225.136719 286.28125 296.394531 214.996094 384.023438 214.996094 C 471.621094 214.996094 542.910156 286.28125 542.910156 373.875 L 542.910156 628.355469 C 542.910156 677.523438 463.113281 699.550781 384.023438 699.550781 " fill-opacity="1" fill-rule="nonzero"/><path fill="#444648" d="M 384.023438 205.820312 C 291.34375 205.820312 215.957031 281.203125 215.957031 373.875 L 215.957031 628.355469 C 215.957031 647.570312 226.144531 674.1875 274.761719 692.085938 C 303.890625 702.792969 342.6875 708.726562 384.023438 708.726562 C 425.359375 708.726562 464.152344 702.792969 493.28125 692.085938 C 541.898438 674.1875 552.085938 647.570312 552.085938 628.355469 L 552.085938 373.875 C 552.085938 281.203125 476.699219 205.820312 384.023438 205.820312 M 384.023438 224.175781 C 466.691406 224.175781 533.730469 291.175781 533.730469 373.875 L 533.730469 628.355469 C 533.730469 669.691406 458.859375 690.371094 384.023438 690.371094 C 309.183594 690.371094 234.3125 669.691406 234.3125 628.355469 L 234.3125 373.875 C 234.3125 291.175781 301.351562 224.175781 384.023438 224.175781 " fill-opacity="1" fill-rule="nonzero"/><path fill="#e22d27" d="M 533.730469 611.683594 L 234.3125 611.683594 L 234.3125 593.019531 C 250.101562 597.027344 266.5625 599.199219 283.453125 599.199219 C 395.097656 599.199219 488.265625 506.039062 488.265625 394.402344 C 488.265625 324.492188 451.730469 261.835938 397.054688 224.785156 C 472.414062 231.273438 531.832031 293.59375 533.699219 370.203125 L 533.699219 371.488281 C 533.699219 371.671875 533.699219 371.824219 533.730469 372.007812 L 533.730469 611.683594 " fill-opacity="1" fill-rule="nonzero"/><path fill="#41150f" d="M 533.730469 611.683594 L 533.730469 373.875 L 533.730469 611.683594 M 533.730469 373.875 L 533.730469 373.75 L 533.730469 373.875 M 533.730469 373.71875 L 533.730469 373.628906 L 533.730469 373.71875 M 533.730469 373.597656 L 533.730469 373.507812 L 533.730469 373.597656 M 533.730469 373.476562 L 533.730469 373.414062 L 533.730469 373.476562 M 533.730469 373.351562 L 533.730469 373.292969 L 533.730469 373.351562 M 533.730469 373.230469 L 533.730469 373.167969 L 533.730469 373.230469 M 533.730469 373.109375 L 533.730469 373.046875 L 533.730469 373.109375 M 533.730469 372.984375 L 533.730469 372.925781 L 533.730469 372.984375 M 533.730469 372.863281 L 533.730469 372.800781 L 533.730469 372.863281 M 533.730469 372.773438 L 533.730469 372.710938 L 533.730469 372.773438 M 533.730469 372.648438 L 533.730469 372.589844 L 533.730469 372.648438 M 533.730469 372.527344 L 533.730469 372.464844 L 533.730469 372.527344 M 533.730469 372.40625 L 533.730469 372.34375 L 533.730469 372.40625 M 533.730469 372.28125 L 533.730469 372.222656 L 533.730469 372.28125 M 533.730469 372.160156 L 533.730469 372.128906 L 533.730469 372.160156 M 533.730469 372.039062 L 533.730469 372.007812 L 533.730469 372.039062 M 533.699219 371.488281 L 533.699219 371.457031 L 533.699219 371.488281 M 533.699219 371.394531 L 533.699219 371.335938 L 533.699219 371.394531 M 533.699219 371.273438 L 533.699219 371.242188 L 533.699219 371.273438 M 533.699219 371.152344 L 533.699219 371.121094 L 533.699219 371.152344 M 533.699219 371.027344 L 533.699219 370.996094 L 533.699219 371.027344 M 533.699219 370.691406 L 533.699219 370.660156 L 533.699219 370.691406 M 533.699219 370.570312 L 533.699219 370.539062 L 533.699219 370.570312 M 533.699219 370.445312 L 533.699219 370.417969 L 533.699219 370.445312 M 533.699219 370.234375 L 533.699219 370.203125 L 533.699219 370.234375 " fill-opacity="1" fill-rule="nonzero"/><path fill="#ffffff" d="M 258.332031 373.875 C 258.332031 373.875 258.179688 373.078125 257.902344 371.640625 C 257.6875 370.171875 257.261719 368.03125 256.957031 365.308594 C 256.773438 363.960938 256.558594 362.429688 256.34375 360.808594 C 256.28125 359.125 256.3125 357.292969 256.28125 355.332031 C 256.25 353.375 256.3125 351.234375 256.34375 349 C 256.34375 346.734375 256.832031 344.503906 257.078125 342.085938 C 257.445312 339.667969 257.78125 337.160156 258.179688 334.558594 C 258.851562 331.988281 259.523438 329.390625 260.230469 326.667969 C 260.625 325.320312 260.992188 323.941406 261.390625 322.535156 C 261.851562 321.191406 262.433594 319.84375 262.953125 318.46875 C 264.023438 315.714844 265.214844 312.929688 266.378906 310.054688 C 267.785156 307.332031 269.316406 304.578125 270.875 301.792969 C 272.316406 298.949219 274.210938 296.347656 276.078125 293.714844 C 279.628906 288.210938 284.246094 283.46875 288.652344 278.511719 C 293.609375 274.105469 298.351562 269.484375 303.828125 265.9375 C 306.492188 264.039062 309.089844 262.144531 311.9375 260.703125 C 314.722656 259.175781 317.476562 257.644531 320.199219 256.238281 C 323.074219 255.042969 325.828125 253.851562 328.582031 252.78125 C 329.988281 252.261719 331.335938 251.679688 332.679688 251.21875 C 334.089844 250.851562 335.464844 250.457031 336.8125 250.089844 C 339.503906 249.386719 342.136719 248.679688 344.707031 248.007812 C 347.304688 247.640625 349.816406 247.273438 352.230469 246.90625 C 354.648438 246.660156 356.882812 246.171875 359.117188 246.171875 C 361.320312 246.171875 363.398438 246.140625 365.390625 246.140625 C 367.316406 246.171875 369.152344 246.140625 370.835938 246.203125 C 372.488281 246.417969 374.046875 246.601562 375.425781 246.785156 C 378.207031 247.121094 380.351562 247.550781 381.820312 247.761719 C 383.257812 248.039062 384.023438 248.191406 384.023438 248.191406 C 384.023438 248.191406 383.257812 248.40625 381.820312 248.835938 C 380.382812 249.203125 378.300781 249.84375 375.667969 250.425781 C 374.382812 250.761719 372.945312 251.097656 371.355469 251.496094 C 369.824219 252.078125 368.140625 252.566406 366.398438 253.148438 C 364.65625 253.699219 362.789062 254.28125 360.828125 254.921875 C 358.839844 255.472656 356.882812 256.453125 354.800781 257.246094 C 352.753906 258.042969 350.578125 258.898438 348.347656 259.757812 C 346.203125 260.796875 344 261.898438 341.738281 263 C 340.605469 263.519531 339.472656 264.070312 338.28125 264.621094 C 337.148438 265.203125 336.046875 265.90625 334.914062 266.546875 C 332.652344 267.925781 330.324219 269.179688 327.96875 270.527344 C 323.5625 273.707031 318.761719 276.523438 314.476562 280.222656 C 309.917969 283.589844 305.878906 287.660156 301.625 291.484375 C 297.800781 295.734375 293.703125 299.773438 290.367188 304.300781 C 286.632812 308.585938 283.847656 313.417969 280.636719 317.824219 C 279.320312 320.148438 278.035156 322.503906 276.691406 324.769531 C 276.015625 325.902344 275.3125 327.003906 274.730469 328.136719 C 274.179688 329.296875 273.628906 330.460938 273.109375 331.5625 C 271.976562 333.855469 270.90625 336.058594 269.867188 338.199219 C 269.011719 340.433594 268.152344 342.574219 267.359375 344.65625 C 266.5625 346.707031 265.582031 348.726562 265.03125 350.621094 C 264.421875 352.578125 263.839844 354.414062 263.289062 356.128906 C 262.707031 357.871094 262.1875 359.523438 261.636719 361.085938 C 261.238281 362.675781 260.902344 364.175781 260.566406 365.492188 C 259.953125 368.183594 259.3125 370.261719 258.972656 371.671875 C 258.546875 373.109375 258.332031 373.875 258.332031 373.875 " fill-opacity="1" fill-rule="nonzero"/><path fill="#f4cc16" d="M 382.398438 185.535156 C 374.109375 185.535156 372.335938 178.007812 369.671875 166.597656 C 367.957031 159.347656 365.816406 149.035156 363.492188 136.765625 L 361.535156 126.121094 L 360.554688 120.796875 C 357.738281 105.039062 354.984375 88.304688 352.78125 73.652344 L 351.863281 67.53125 L 351.222656 62.941406 L 350.488281 57.679688 C 348.589844 43.421875 347.613281 33.421875 347.613281 28 C 347.613281 16.394531 360.617188 9.460938 382.398438 9.460938 C 404.214844 9.460938 417.21875 16.394531 417.21875 28 C 417.21875 32.550781 416.148438 42.507812 414.035156 57.621094 L 412.628906 67.472656 L 411.710938 73.589844 C 409.449219 88.398438 406.722656 105.132812 404 120.707031 L 402.226562 130.679688 L 401.125 136.675781 C 398.800781 149.25 396.78125 159.285156 395.128906 166.535156 C 392.496094 177.976562 390.753906 185.535156 382.398438 185.535156 " fill-opacity="1" fill-rule="nonzero"/><path fill="#444648" d="M 382.398438 0.28125 C 341.585938 0.28125 338.433594 21.492188 338.433594 28 C 338.433594 33.910156 339.414062 44.035156 341.402344 58.90625 L 341.492188 59.515625 C 341.707031 61.078125 341.921875 62.636719 342.136719 64.257812 C 342.351562 65.726562 342.5625 67.289062 342.777344 68.847656 C 343.085938 70.867188 343.390625 72.917969 343.695312 74.996094 C 345.929688 89.773438 348.683594 106.601562 351.527344 122.417969 L 351.894531 124.40625 L 352.476562 127.742188 L 352.875 129.882812 L 353.332031 132.421875 L 353.488281 133.097656 C 353.824219 134.929688 354.160156 136.738281 354.496094 138.480469 C 356.820312 150.871094 358.992188 161.335938 360.707031 168.707031 C 361.746094 173.019531 362.605469 176.296875 363.398438 178.742188 C 367.804688 192.632812 377.199219 194.710938 382.398438 194.710938 C 387.664062 194.710938 397.117188 192.632812 401.460938 178.652344 C 402.226562 176.171875 403.082031 172.898438 404.0625 168.585938 C 405.746094 161.210938 407.796875 151.054688 410.152344 138.359375 C 410.519531 136.371094 410.886719 134.351562 411.253906 132.300781 L 411.40625 131.566406 C 411.621094 130.25 411.863281 128.90625 412.109375 127.558594 C 412.414062 125.875 412.722656 124.101562 413.027344 122.296875 C 415.78125 106.632812 418.535156 89.835938 420.769531 74.964844 C 421.105469 72.855469 421.410156 70.804688 421.6875 68.785156 C 421.929688 67.226562 422.144531 65.695312 422.390625 64.167969 C 422.632812 62.390625 422.878906 60.617188 423.125 58.90625 C 426.0625 37.917969 426.398438 31.210938 426.398438 28 C 426.398438 21.492188 423.214844 0.28125 382.402344 0.28125 Z M 382.398438 18.640625 C 395.21875 18.640625 408.039062 21.757812 408.039062 28 C 408.039062 32.324219 406.816406 42.84375 404.949219 56.363281 C 404.703125 58.046875 404.460938 59.792969 404.214844 61.566406 C 403.972656 63.066406 403.757812 64.5625 403.542969 66.125 C 403.238281 68.113281 402.960938 70.132812 402.625 72.214844 C 400.390625 87.019531 397.667969 103.632812 394.945312 119.144531 C 394.640625 120.886719 394.332031 122.664062 394.027344 124.40625 C 393.75 125.96875 393.476562 127.496094 393.199219 129.027344 C 392.832031 131.078125 392.464844 133.066406 392.097656 135.023438 C 387.753906 158.457031 383.867188 176.355469 382.398438 176.355469 C 380.992188 176.355469 376.953125 158.519531 372.519531 135.054688 C 372.152344 133.097656 371.785156 131.105469 371.386719 129.089844 C 371.109375 127.558594 370.835938 126.027344 370.558594 124.46875 C 370.222656 122.695312 369.917969 120.949219 369.609375 119.175781 C 366.828125 103.753906 364.105469 87.203125 361.871094 72.304688 C 361.5625 70.253906 361.257812 68.207031 360.953125 66.214844 C 360.738281 64.6875 360.523438 63.15625 360.308594 61.6875 C 360.066406 59.882812 359.820312 58.140625 359.605469 56.457031 C 357.863281 43.636719 356.792969 33.316406 356.792969 28 C 356.792969 21.757812 369.609375 18.640625 382.398438 18.640625 " fill-opacity="1" fill-rule="nonzero"/><path fill="#f4cc16" d="M 291.558594 230.445312 C 288.714844 230.445312 285.5 230.445312 249.644531 209.183594 L 235.722656 200.832031 C 221.921875 192.480469 207.511719 183.484375 195.210938 175.53125 L 189.980469 172.132812 L 186.15625 169.625 C 184.503906 168.523438 183.066406 167.605469 181.6875 166.65625 C 169.753906 158.703125 161.617188 152.828125 157.515625 149.21875 C 154.609375 146.679688 150.355469 140.746094 154.519531 129.699219 C 159.292969 117.003906 178.875 93.566406 194.140625 93.566406 C 197.71875 93.566406 200.964844 94.761719 203.503906 96.996094 C 206.929688 100.023438 213.722656 107.398438 223.667969 118.992188 C 224.769531 120.277344 230.089844 126.519531 230.089844 126.519531 C 231.40625 128.046875 232.722656 129.636719 234.101562 131.261719 C 243.796875 142.824219 254.570312 155.949219 264.359375 168.21875 L 270.664062 176.140625 C 271.949219 177.734375 273.203125 179.324219 274.457031 180.914062 C 282.351562 190.949219 288.53125 199.117188 292.875 205.144531 C 299.730469 214.660156 304.257812 220.960938 298.75 227.234375 C 296.945312 229.285156 294.34375 230.445312 291.558594 230.445312 " fill-opacity="1" fill-rule="nonzero"/><path fill="#444648" d="M 194.140625 84.390625 C 173.210938 84.390625 151.304688 112.167969 145.921875 126.457031 C 139.585938 143.253906 147.664062 152.796875 151.457031 156.101562 C 155.894531 160.050781 164.125 166.015625 176.609375 174.304688 C 177.984375 175.222656 179.425781 176.171875 180.890625 177.183594 L 181.074219 177.273438 L 184.960938 179.8125 C 186.675781 180.945312 188.386719 182.078125 190.164062 183.210938 C 202.617188 191.226562 217.089844 200.28125 230.949219 208.695312 L 233.519531 210.222656 L 235.566406 211.476562 L 236.484375 212.027344 L 239.699219 213.957031 L 244.929688 217.078125 C 282.992188 239.625 286.390625 239.625 291.558594 239.625 C 296.945312 239.625 302.085938 237.332031 305.601562 233.324219 C 309.089844 229.375 313.773438 220.902344 306.152344 208.417969 C 304.808594 206.1875 302.910156 203.371094 300.339844 199.792969 C 295.90625 193.640625 289.632812 185.382812 281.675781 175.253906 C 280.421875 173.664062 279.136719 172.042969 277.820312 170.390625 C 276.902344 169.195312 275.894531 167.941406 274.882812 166.6875 L 271.824219 162.832031 L 271.550781 162.464844 C 261.667969 150.167969 250.867188 136.980469 241.105469 125.355469 C 239.761719 123.734375 238.414062 122.144531 237.066406 120.582031 L 236.578125 119.972656 C 235.75 118.992188 234.894531 118.011719 234.070312 117.035156 C 232.90625 115.65625 231.742188 114.28125 230.613281 112.964844 C 216.8125 96.933594 212.007812 92.222656 209.59375 90.109375 C 205.371094 86.410156 199.894531 84.390625 194.140625 84.390625 Z M 194.140625 102.746094 C 195.425781 102.746094 196.558594 103.082031 197.445312 103.878906 C 200.6875 106.753906 207.785156 114.585938 216.691406 124.957031 C 217.792969 126.242188 218.953125 127.589844 220.117188 128.964844 C 221.097656 130.097656 222.074219 131.261719 223.085938 132.453125 C 224.402344 133.984375 225.714844 135.542969 227.0625 137.164062 C 236.699219 148.636719 247.347656 161.671875 257.199219 173.9375 C 258.332031 175.347656 259.433594 176.753906 260.535156 178.128906 C 261.542969 179.355469 262.492188 180.609375 263.472656 181.800781 C 264.757812 183.421875 266.011719 185.015625 267.234375 186.574219 C 281.953125 205.328125 292.8125 220.074219 291.867188 221.175781 L 291.558594 221.269531 C 289.113281 221.269531 273.722656 212.792969 254.324219 201.289062 C 252.609375 200.28125 250.835938 199.242188 249.09375 198.167969 C 247.777344 197.375 246.429688 196.578125 245.054688 195.785156 C 243.554688 194.867188 242.023438 193.949219 240.464844 193 C 227.0625 184.859375 212.835938 175.988281 200.199219 167.820312 C 198.425781 166.6875 196.710938 165.585938 194.996094 164.453125 C 193.710938 163.628906 192.425781 162.773438 191.171875 161.945312 C 189.703125 160.96875 188.234375 159.988281 186.796875 159.039062 C 176.027344 151.878906 167.582031 145.855469 163.574219 142.335938 C 155.128906 134.871094 181.992188 102.746094 194.140625 102.746094 " fill-opacity="1" fill-rule="nonzero"/><path fill="#f4cc16" d="M 477.800781 230.445312 C 475.015625 230.445312 472.382812 229.285156 470.578125 227.234375 C 465.101562 220.960938 469.601562 214.660156 476.484375 205.144531 C 480.796875 199.117188 487.007812 190.949219 494.902344 180.914062 L 499.460938 175.132812 L 504.96875 168.21875 C 514.882812 155.859375 525.652344 142.734375 535.257812 131.261719 L 542.632812 122.570312 L 545.691406 118.960938 C 560.683594 101.523438 564.570312 98.125 565.824219 96.996094 C 568.394531 94.761719 571.640625 93.566406 575.21875 93.566406 C 590.457031 93.566406 610.039062 117.003906 614.839844 129.699219 C 619.003906 140.746094 614.75 146.679688 611.84375 149.21875 C 607.742188 152.828125 599.605469 158.703125 587.640625 166.6875 C 586.203125 167.636719 584.734375 168.617188 583.203125 169.625 L 579.5625 172.011719 C 577.667969 173.234375 575.921875 174.367188 574.179688 175.5 C 561.847656 183.453125 547.46875 192.449219 533.636719 200.832031 L 524.949219 206.0625 C 523.203125 207.105469 521.460938 208.175781 519.714844 209.183594 C 483.828125 230.445312 480.613281 230.445312 477.800781 230.445312 " fill-opacity="1" fill-rule="nonzero"/><path fill="#444648" d="M 575.21875 84.390625 C 569.4375 84.390625 563.960938 86.410156 559.765625 90.109375 C 557.351562 92.222656 552.546875 96.902344 538.71875 112.996094 C 537.738281 114.128906 536.699219 115.351562 535.65625 116.574219 L 535.257812 117.0625 L 533.269531 119.390625 L 532.261719 120.582031 C 530.914062 122.144531 529.597656 123.734375 528.222656 125.355469 C 518.554688 136.890625 507.753906 150.046875 497.808594 162.464844 L 496.679688 163.90625 L 494.414062 166.75 L 492.273438 169.410156 L 491.507812 170.390625 C 490.191406 172.042969 488.90625 173.664062 487.683594 175.253906 C 479.726562 185.382812 473.425781 193.640625 469.019531 199.792969 C 466.449219 203.371094 464.519531 206.1875 463.175781 208.417969 C 455.585938 220.902344 460.269531 229.375 463.695312 233.292969 C 467.242188 237.300781 472.382812 239.625 477.800781 239.625 C 482.941406 239.625 486.335938 239.625 524.398438 217.109375 C 526.140625 216.066406 527.917969 214.996094 529.691406 213.925781 C 530.855469 213.222656 532.078125 212.488281 533.332031 211.753906 L 533.730469 211.507812 L 535.320312 210.5625 C 536.332031 209.917969 537.371094 209.304688 538.410156 208.695312 C 552.269531 200.25 566.742188 191.226562 579.105469 183.238281 C 580.941406 182.046875 582.683594 180.945312 584.398438 179.8125 L 584.550781 179.691406 L 588.253906 177.273438 C 589.8125 176.265625 591.3125 175.285156 592.75 174.304688 C 605.203125 165.984375 613.464844 160.050781 617.902344 156.101562 C 621.664062 152.796875 629.773438 143.253906 623.40625 126.457031 C 618.023438 112.167969 596.117188 84.390625 575.21875 84.390625 Z M 575.21875 102.746094 C 587.335938 102.746094 614.230469 134.871094 605.753906 142.335938 C 601.777344 145.855469 593.300781 151.878906 582.5625 159.039062 C 581.125 159.988281 579.65625 160.96875 578.15625 161.945312 C 576.902344 162.773438 575.617188 163.628906 574.332031 164.453125 C 572.648438 165.585938 570.90625 166.6875 569.160156 167.820312 C 556.492188 175.988281 542.265625 184.863281 528.863281 193 C 527.335938 193.949219 525.804688 194.867188 524.277344 195.785156 L 520.238281 198.171875 C 518.492188 199.242188 516.75 200.28125 515.035156 201.289062 C 495.605469 212.792969 480.21875 221.269531 477.800781 221.269531 L 477.492188 221.175781 C 476.546875 220.074219 487.375 205.328125 502.125 186.574219 C 503.347656 185.015625 504.601562 183.421875 505.886719 181.800781 C 506.835938 180.609375 507.816406 179.355469 508.792969 178.128906 C 509.894531 176.753906 511.027344 175.347656 512.160156 173.9375 C 521.980469 161.671875 532.660156 148.636719 542.296875 137.164062 C 543.644531 135.542969 544.957031 133.984375 546.242188 132.453125 C 547.253906 131.261719 548.234375 130.097656 549.210938 128.964844 C 550.40625 127.589844 551.535156 126.242188 552.636719 124.957031 C 561.574219 114.585938 568.640625 106.753906 571.882812 103.878906 C 572.800781 103.082031 573.902344 102.746094 575.21875 102.746094 " fill-opacity="1" fill-rule="nonzero"/><path fill="#f4cc16" d="M 710.242188 364.113281 C 705.710938 364.113281 695.738281 363.042969 680.625 360.902344 L 675.359375 360.167969 L 664.652344 358.605469 C 649.8125 356.34375 633.078125 353.589844 617.503906 350.867188 C 617.503906 350.867188 609.089844 349.367188 607.558594 349.09375 L 601.714844 348.050781 C 588.988281 345.695312 578.953125 343.675781 571.699219 341.992188 C 560.257812 339.363281 552.699219 337.648438 552.699219 329.296875 C 552.699219 321.007812 560.226562 319.230469 571.609375 316.539062 C 578.890625 314.855469 589.199219 312.714844 601.46875 310.390625 C 603.460938 310.023438 612.117188 308.402344 612.117188 308.402344 L 617.441406 307.453125 C 633.289062 304.636719 650.027344 301.855469 664.589844 299.683594 C 666.640625 299.375 668.691406 299.070312 670.710938 298.765625 L 675.269531 298.121094 C 677.105469 297.847656 678.847656 297.632812 680.5625 297.386719 C 694.789062 295.460938 704.792969 294.511719 710.242188 294.511719 C 721.867188 294.511719 728.78125 307.515625 728.78125 329.296875 C 728.78125 351.082031 721.867188 364.113281 710.242188 364.113281 " fill-opacity="1" fill-rule="nonzero"/><path fill="#444648" d="M 710.242188 285.332031 C 704.273438 285.332031 694.175781 286.28125 679.339844 288.300781 C 677.625 288.515625 675.851562 288.761719 674.015625 289.035156 C 672.484375 289.25 670.953125 289.464844 669.363281 289.675781 C 667.375 289.984375 665.292969 290.289062 663.183594 290.59375 C 648.589844 292.796875 631.761719 295.550781 615.820312 298.425781 L 612.546875 299.007812 L 610.558594 299.375 L 609.792969 299.5 L 605.785156 300.234375 C 603.796875 300.601562 601.746094 300.996094 599.757812 301.363281 C 587.367188 303.71875 576.902344 305.894531 569.527344 307.605469 C 565.214844 308.617188 561.941406 309.503906 559.492188 310.269531 C 545.601562 314.671875 543.519531 324.066406 543.519531 329.296875 C 543.519531 334.527344 545.601562 343.984375 559.582031 348.328125 C 562.03125 349.09375 565.335938 349.980469 569.648438 350.957031 C 577.023438 352.640625 587.183594 354.691406 599.878906 357.015625 L 600.03125 357.078125 C 601.960938 357.414062 603.949219 357.78125 605.9375 358.148438 C 607.46875 358.421875 609.027344 358.699219 610.648438 358.972656 L 612.054688 359.21875 L 615.972656 359.921875 C 631.546875 362.644531 648.375 365.398438 663.273438 367.664062 C 665.386719 368 667.4375 368.273438 669.457031 368.582031 C 670.984375 368.824219 672.515625 369.039062 674.042969 369.253906 C 675.851562 369.527344 677.625 369.773438 679.339844 370.019531 C 700.328125 372.925781 707.027344 373.292969 710.242188 373.292969 C 716.757812 373.292969 737.960938 370.109375 737.960938 329.296875 C 737.960938 288.484375 716.757812 285.332031 710.242188 285.332031 Z M 710.242188 303.691406 C 722.722656 303.691406 722.722656 354.933594 710.242188 354.933594 C 705.925781 354.933594 695.433594 353.710938 681.878906 351.84375 C 680.195312 351.601562 678.449219 351.355469 676.644531 351.082031 C 675.175781 350.867188 673.679688 350.652344 672.117188 350.40625 C 670.128906 350.132812 668.109375 349.824219 666.027344 349.519531 C 651.21875 347.257812 634.605469 344.5625 619.09375 341.839844 C 617.320312 341.535156 615.542969 341.199219 613.800781 340.894531 C 612.269531 340.648438 610.710938 340.34375 609.210938 340.066406 C 607.191406 339.699219 605.171875 339.332031 603.214844 338.996094 C 579.777344 334.652344 561.878906 330.734375 561.878906 329.296875 C 561.878906 327.859375 579.714844 323.851562 603.183594 319.414062 C 605.140625 319.046875 607.128906 318.652344 609.148438 318.285156 C 610.679688 318.007812 612.210938 317.734375 613.769531 317.425781 C 615.515625 317.121094 617.289062 316.816406 619.0625 316.476562 C 634.484375 313.726562 651.035156 310.972656 665.9375 308.738281 C 667.988281 308.433594 670.035156 308.125 672.027344 307.851562 C 673.554688 307.636719 675.085938 307.421875 676.554688 307.207031 C 678.328125 306.964844 680.074219 306.71875 681.785156 306.472656 C 694.605469 304.761719 704.917969 303.691406 710.242188 303.691406 " fill-opacity="1" fill-rule="nonzero"/><path fill="#f4cc16" d="M 57.804688 364.113281 C 46.175781 364.113281 39.253906 351.082031 39.253906 329.296875 C 39.253906 321.648438 40.242188 314.398438 42.046875 308.828125 C 46.117188 296.347656 53.640625 294.511719 57.804688 294.511719 C 63.25 294.511719 73.253906 295.460938 87.480469 297.386719 L 92.746094 298.121094 L 97.332031 298.765625 C 99.324219 299.070312 101.402344 299.375 103.484375 299.683594 C 118.015625 301.855469 134.753906 304.636719 150.601562 307.453125 L 160.578125 309.257812 C 162.597656 309.625 164.617188 310.023438 166.574219 310.390625 C 178.84375 312.714844 189.152344 314.855469 196.433594 316.539062 C 207.816406 319.230469 215.34375 321.007812 215.34375 329.296875 C 215.34375 337.648438 207.785156 339.363281 196.34375 341.992188 C 189.09375 343.675781 179.058594 345.695312 166.480469 348.019531 L 154.335938 350.191406 L 150.511719 350.867188 C 134.9375 353.589844 118.199219 356.34375 103.390625 358.605469 L 92.714844 360.167969 L 87.421875 360.902344 C 72.304688 363.042969 62.332031 364.113281 57.804688 364.113281 " fill-opacity="1" fill-rule="nonzero"/><g clip-path="url(#45452438e5)"><path fill="#444648" d="M 57.804688 285.332031 C 51.316406 285.332031 30.078125 288.484375 30.078125 329.296875 C 30.078125 335.386719 30.640625 344.351562 33.316406 352.578125 C 39.566406 371.792969 53.640625 373.292969 57.804688 373.292969 C 61.015625 373.292969 67.714844 372.925781 88.707031 370.019531 C 90.417969 369.773438 92.164062 369.527344 94 369.253906 L 94.367188 369.191406 L 98.617188 368.582031 C 100.609375 368.273438 102.65625 368 104.738281 367.664062 C 119.636719 365.398438 136.464844 362.644531 152.101562 359.921875 L 155.957031 359.25 L 157.425781 358.972656 C 158.984375 358.699219 160.578125 358.421875 162.136719 358.117188 C 163.972656 357.78125 165.839844 357.476562 167.644531 357.136719 L 168.132812 357.046875 C 180.863281 354.691406 191.019531 352.640625 198.394531 350.957031 C 202.707031 349.949219 206.011719 349.089844 208.460938 348.328125 C 222.441406 343.984375 224.523438 334.527344 224.523438 329.296875 C 224.523438 324.066406 222.441406 314.671875 208.550781 310.265625 C 206.105469 309.503906 202.832031 308.617188 198.515625 307.605469 C 191.113281 305.894531 180.679688 303.71875 168.285156 301.363281 C 166.296875 300.996094 164.277344 300.628906 162.230469 300.234375 L 157.578125 299.375 L 155.679688 299.039062 L 152.191406 298.398438 C 136.28125 295.550781 119.453125 292.796875 104.828125 290.59375 C 102.75 290.289062 100.667969 289.984375 98.617188 289.675781 L 94.03125 289.035156 C 92.195312 288.757812 90.417969 288.515625 88.707031 288.300781 C 73.867188 286.28125 63.769531 285.332031 57.804688 285.332031 Z M 57.804688 303.691406 C 63.128906 303.691406 73.4375 304.761719 86.257812 306.472656 C 87.972656 306.71875 89.714844 306.964844 91.460938 307.207031 C 92.957031 307.421875 94.488281 307.636719 96.019531 307.851562 C 98.007812 308.125 100.058594 308.433594 102.105469 308.738281 C 117.007812 310.972656 133.558594 313.726562 148.980469 316.476562 C 150.753906 316.816406 152.53125 317.121094 154.273438 317.425781 C 155.835938 317.734375 157.363281 318.007812 158.894531 318.285156 C 160.914062 318.652344 162.902344 319.046875 164.859375 319.414062 C 188.328125 323.851562 206.164062 327.859375 206.164062 329.296875 C 206.164062 330.734375 188.265625 334.652344 164.828125 338.996094 C 162.871094 339.332031 160.882812 339.699219 158.832031 340.066406 C 157.332031 340.34375 155.773438 340.648438 154.210938 340.894531 C 152.5 341.199219 150.722656 341.535156 148.949219 341.839844 C 133.4375 344.5625 116.824219 347.257812 102.015625 349.519531 C 99.933594 349.824219 97.914062 350.132812 95.925781 350.40625 C 94.367188 350.652344 92.867188 350.867188 91.398438 351.082031 C 89.59375 351.355469 87.847656 351.601562 86.167969 351.84375 C 72.613281 353.710938 62.117188 354.933594 57.804688 354.933594 C 45.320312 354.933594 45.320312 303.691406 57.804688 303.691406 " fill-opacity="1" fill-rule="nonzero"/></g><path fill="#92afc9" d="M 208.949219 758.84375 C 154.519531 758.84375 154.242188 717.203125 153.722656 634.230469 L 153.691406 630.101562 C 153.691406 627.652344 154.640625 625.296875 156.386719 623.585938 C 158.097656 621.839844 160.421875 620.859375 162.871094 620.859375 L 605.171875 620.859375 C 607.621094 620.859375 609.945312 621.839844 611.660156 623.585938 C 613.402344 625.296875 614.351562 627.652344 614.351562 630.101562 L 614.320312 634.230469 C 613.800781 717.203125 613.523438 758.84375 559.09375 758.84375 L 208.949219 758.84375 " fill-opacity="1" fill-rule="nonzero"/><path fill="#444648" d="M 605.171875 611.683594 L 162.871094 611.683594 C 158.007812 611.683594 153.292969 613.640625 149.867188 617.097656 C 146.410156 620.585938 144.484375 625.265625 144.511719 630.160156 L 144.542969 634.292969 C 144.820312 678.101562 145.003906 707.015625 151.613281 728.21875 C 159.933594 755.019531 178.691406 768.019531 208.949219 768.019531 L 559.09375 768.019531 C 589.355469 768.019531 608.109375 755.019531 616.433594 728.21875 C 623.039062 707.015625 623.222656 678.101562 623.5 634.292969 L 623.53125 630.683594 L 623.53125 630.039062 C 623.53125 619.914062 615.332031 611.683594 605.171875 611.683594 M 605.171875 630.039062 C 604.621094 715.304688 605.171875 749.664062 559.09375 749.664062 L 208.949219 749.664062 C 162.871094 749.664062 163.421875 715.304688 162.871094 630.039062 L 605.171875 630.039062 " fill-opacity="1" fill-rule="nonzero"/><path fill="#5c85a8" d="M 559.09375 749.664062 L 208.367188 749.664062 C 180.617188 749.511719 170.03125 736.570312 165.839844 707.289062 C 183.800781 712.582031 202.675781 715.460938 222.136719 715.460938 C 289.507812 715.460938 350.121094 681.5 387.632812 630.039062 L 605.171875 630.039062 C 604.621094 715.304688 605.171875 749.664062 559.09375 749.664062 " fill-opacity="1" fill-rule="nonzero"/><path fill="#283139" d="M 559.09375 749.664062 L 208.949219 749.664062 L 559.09375 749.664062 C 605.171875 749.664062 604.621094 715.304688 605.171875 630.039062 C 604.621094 715.304688 605.171875 749.664062 559.09375 749.664062 M 208.886719 749.664062 L 208.859375 749.664062 L 208.886719 749.664062 M 208.796875 749.664062 L 208.765625 749.664062 L 208.796875 749.664062 M 208.644531 749.664062 L 208.613281 749.664062 L 208.644531 749.664062 M 208.460938 749.664062 L 208.429688 749.664062 L 208.460938 749.664062 " fill-opacity="1" fill-rule="nonzero"/><path fill="#444648" d="M 161.953125 676.878906 L 417.953125 676.878906 C 423.03125 676.878906 427.132812 672.78125 427.132812 667.703125 C 427.132812 662.621094 423.03125 658.523438 417.953125 658.523438 L 161.953125 658.523438 C 156.875 658.523438 152.773438 662.621094 152.773438 667.703125 C 152.773438 672.78125 156.875 676.878906 161.953125 676.878906 " fill-opacity="1" fill-rule="nonzero"/></svg>