<svg xmlns="http://www.w3.org/2000/svg" xmlns:xlink="http://www.w3.org/1999/xlink" width="1024" zoomAndPan="magnify" viewBox="0 0 768 767.999994" height="1024" preserveAspectRatio="xMidYMid meet" version="1.0"><defs><clipPath id="c301b107a1"><path d="M 46.359375 221 L 557 221 L 557 546 L 46.359375 546 Z M 46.359375 221 " clip-rule="nonzero"/></clipPath><clipPath id="0637561b75"><path d="M 186 14.851562 L 721.285156 14.851562 L 721.285156 752.878906 L 186 752.878906 Z M 186 14.851562 " clip-rule="nonzero"/></clipPath></defs><rect x="-76.8" width="921.6" fill="#ffffff" y="-76.799999" height="921.599993" fill-opacity="1"/><rect x="-76.8" width="921.6" fill="#ffffff" y="-76.799999" height="921.599993" fill-opacity="1"/><rect x="-76.8" width="921.6" fill="#0c822f" y="-76.799999" height="921.599993" fill-opacity="1"/><g clip-path="url(#c301b107a1)"><path fill="#ffffff" d="M 334.109375 491.128906 L 334.109375 536.8125 C 334.109375 545.523438 339.855469 548.445312 346.882812 543.285156 L 551.664062 393.21875 C 558.6875 388.074219 558.6875 379.640625 551.664062 374.496094 L 346.882812 224.417969 C 339.855469 219.273438 334.109375 222.191406 334.109375 230.902344 L 334.109375 276.574219 C 334.109375 285.296875 326.976562 292.417969 318.265625 292.417969 L 62.199219 292.417969 C 53.488281 292.417969 46.359375 299.546875 46.359375 308.257812 L 46.359375 459.445312 C 46.359375 468.15625 53.488281 475.285156 62.199219 475.285156 L 318.265625 475.285156 C 326.976562 475.285156 334.109375 482.417969 334.109375 491.128906 " fill-opacity="1" fill-rule="nonzero"/></g><g clip-path="url(#0637561b75)"><path fill="#ffffff" d="M 704.957031 14.835938 L 203.007812 14.835938 C 194.007812 14.835938 186.695312 22.164062 186.695312 31.152344 L 186.695312 228.035156 C 186.695312 237.035156 194.007812 244.363281 203.007812 244.363281 L 250.53125 244.363281 C 259.519531 244.363281 266.847656 237.035156 266.847656 228.035156 L 266.847656 94.996094 L 641.121094 94.996094 L 641.121094 672.722656 L 266.847656 672.722656 L 266.847656 539.667969 C 266.847656 530.667969 259.519531 523.351562 250.53125 523.351562 L 203.007812 523.351562 C 194.007812 523.351562 186.695312 530.667969 186.695312 539.667969 L 186.695312 736.550781 C 186.695312 745.550781 194.007812 752.878906 203.007812 752.878906 L 704.957031 752.878906 C 713.957031 752.878906 721.273438 745.550781 721.273438 736.550781 L 721.273438 31.152344 C 721.273438 22.164062 713.957031 14.835938 704.957031 14.835938 " fill-opacity="1" fill-rule="nonzero"/></g></svg>