<svg xmlns="http://www.w3.org/2000/svg" xmlns:xlink="http://www.w3.org/1999/xlink" width="1024" zoomAndPan="magnify" viewBox="0 0 768 767.999994" height="1024" preserveAspectRatio="xMidYMid meet" version="1.0"><defs><clipPath id="ddcbd48ce1"><path d="M 359 52.320312 L 391 52.320312 L 391 715.320312 L 359 715.320312 Z M 359 52.320312 " clip-rule="nonzero"/></clipPath></defs><rect x="-76.8" width="921.6" fill="#ffffff" y="-76.799999" height="921.599993" fill-opacity="1"/><rect x="-76.8" width="921.6" fill="#ffffff" y="-76.799999" height="921.599993" fill-opacity="1"/><rect x="-76.8" width="921.6" fill="#d9d9d9" y="-76.799999" height="921.599993" fill-opacity="1"/><path fill="#000000" d="M 262.195312 609.46875 C 267.046875 609.269531 270.886719 610.851562 272.871094 613.867188 C 276.925781 619.988281 272.121094 630.269531 262.195312 636.785156 C 252.257812 643.308594 240.9375 643.652344 236.886719 637.535156 C 232.890625 631.398438 237.636719 621.132812 247.5625 614.550781 C 252.257812 611.496094 257.507812 609.675781 262.195312 609.46875 Z M 68.050781 609.46875 C 72.839844 609.515625 78.28125 611.394531 83.128906 614.550781 C 93.066406 621.125 97.855469 631.398438 93.84375 637.535156 C 89.789062 643.660156 78.46875 643.308594 68.53125 636.785156 C 58.597656 630.269531 53.804688 619.988281 57.820312 613.867188 C 59.535156 611.25 62.753906 609.667969 66.816406 609.46875 C 67.203125 609.46875 67.601562 609.46875 68.050781 609.46875 Z M 71.902344 470.558594 C 98.691406 475.796875 131.320312 479.058594 165.378906 479.398438 C 199.382812 479.058594 232.046875 475.804688 258.789062 470.558594 L 268.277344 539.269531 C 268.429688 540.359375 270.109375 543.375 258.941406 549.988281 C 247.714844 556.65625 232.492188 567.667969 165.378906 567.667969 L 165.378906 567.621094 L 165.332031 567.667969 C 98.257812 567.667969 83.023438 556.65625 71.808594 549.988281 C 60.582031 543.375 62.269531 540.351562 62.414062 539.269531 Z M 165.378906 222.613281 C 195.082031 222.613281 250.988281 227.449219 270.320312 253.042969 L 259.480469 326.664062 C 238.679688 322.074219 190.820312 320.734375 165.378906 321.171875 C 139.917969 320.726562 92.078125 322.0625 71.21875 326.664062 L 60.449219 253.042969 C 79.710938 227.449219 135.664062 222.613281 165.378906 222.613281 Z M 244.457031 131.3125 C 264.367188 141.59375 274.304688 153.988281 274.304688 165.949219 L 274.304688 194.640625 C 270.394531 192.773438 266.789062 190.886719 263.886719 188.914062 C 247.867188 178.101562 244.457031 166.128906 244.457031 157.734375 Z M 86.296875 131.3125 L 86.296875 157.746094 C 86.296875 166.140625 82.882812 178.109375 66.863281 188.921875 C 63.902344 190.894531 60.34375 192.78125 56.441406 194.652344 L 56.441406 165.949219 C 56.433594 153.988281 66.359375 141.59375 86.296875 131.3125 Z M 165.378906 88.675781 C 91.773438 88.675781 32.519531 122.074219 32.519531 163.523438 L 32.519531 254.273438 L 15.570312 264.0625 C 1.078125 272.410156 6.175781 299.679688 29.851562 290.394531 L 32.519531 289.359375 L 32.519531 606.355469 C 32.519531 632.980469 53.964844 679.46875 165.378906 679.46875 C 276.78125 679.46875 298.238281 632.972656 298.238281 606.355469 L 298.238281 289.359375 L 300.90625 290.394531 C 324.535156 299.679688 329.667969 272.410156 315.140625 264.0625 L 298.238281 254.273438 L 298.238281 163.523438 C 298.238281 122.082031 238.964844 88.675781 165.378906 88.675781 Z M 165.378906 88.675781 " fill-opacity="1" fill-rule="evenodd"/><g clip-path="url(#ddcbd48ce1)"><path fill="#000000" d="M 359.960938 52.375 L 390.113281 52.375 L 390.113281 715.773438 L 359.960938 715.773438 Z M 359.960938 52.375 " fill-opacity="1" fill-rule="evenodd"/></g><path fill="#000000" d="M 699.628906 609.46875 C 704.523438 609.269531 708.378906 610.851562 710.351562 613.867188 C 714.402344 619.988281 709.601562 630.269531 699.675781 636.785156 C 689.738281 643.308594 678.417969 643.652344 674.367188 637.535156 C 670.3125 631.398438 675.117188 621.132812 685.042969 614.550781 C 689.738281 611.496094 694.929688 609.675781 699.628906 609.46875 Z M 505.472656 609.46875 C 510.265625 609.515625 515.757812 611.394531 520.597656 614.550781 C 530.535156 621.125 535.328125 631.398438 531.285156 637.535156 C 527.222656 643.660156 515.910156 643.308594 505.976562 636.785156 C 496.03125 630.269531 491.238281 619.988281 495.300781 613.867188 C 497.035156 611.25 500.195312 609.667969 504.246094 609.46875 C 504.636719 609.46875 505.082031 609.46875 505.472656 609.46875 Z M 509.382812 470.558594 C 536.117188 475.796875 568.789062 479.058594 602.800781 479.398438 C 636.851562 479.058594 669.46875 475.804688 696.277344 470.558594 L 705.769531 539.269531 C 705.902344 540.359375 707.589844 543.375 696.363281 549.988281 C 685.203125 556.65625 669.933594 567.667969 602.847656 567.667969 L 602.800781 567.621094 L 602.800781 567.667969 C 535.679688 567.667969 520.457031 556.65625 509.289062 549.988281 C 498.070312 543.375 499.738281 540.351562 499.890625 539.269531 Z M 602.800781 222.613281 C 632.515625 222.613281 688.449219 227.449219 707.789062 253.042969 L 696.960938 326.664062 C 676.160156 322.074219 628.273438 320.734375 602.8125 321.171875 C 577.40625 320.726562 529.511719 322.0625 508.699219 326.664062 L 497.878906 253.042969 C 517.191406 227.449219 573.144531 222.613281 602.800781 222.613281 Z M 681.882812 131.3125 C 701.847656 141.59375 711.785156 153.988281 711.785156 165.949219 L 711.785156 194.640625 C 707.882812 192.773438 704.269531 190.886719 701.355469 188.914062 C 685.289062 178.101562 681.882812 166.128906 681.882812 157.734375 Z M 523.769531 131.3125 L 523.769531 157.746094 C 523.769531 166.140625 520.363281 178.109375 504.304688 188.921875 C 501.382812 190.894531 497.777344 192.78125 493.875 194.652344 L 493.875 165.949219 C 493.867188 153.988281 503.800781 141.59375 523.769531 131.3125 Z M 602.800781 88.675781 C 529.195312 88.675781 469.941406 122.074219 469.941406 163.523438 L 469.941406 254.273438 L 453.039062 264.0625 C 438.546875 272.410156 443.644531 299.679688 467.324219 290.394531 L 469.941406 289.359375 L 469.941406 606.355469 C 469.941406 632.980469 491.445312 679.46875 602.800781 679.46875 C 714.214844 679.46875 735.710938 632.972656 735.710938 606.355469 L 735.710938 289.359375 L 738.328125 290.394531 C 762.007812 299.679688 767.09375 272.410156 752.621094 264.0625 L 735.710938 254.273438 L 735.710938 163.523438 C 735.710938 122.082031 676.445312 88.675781 602.800781 88.675781 Z M 602.800781 88.675781 " fill-opacity="1" fill-rule="evenodd"/></svg>