<svg xmlns="http://www.w3.org/2000/svg" xmlns:xlink="http://www.w3.org/1999/xlink" width="1024" zoomAndPan="magnify" viewBox="0 0 768 767.999994" height="1024" preserveAspectRatio="xMidYMid meet" version="1.0"><defs><clipPath id="2825369004"><path d="M 59.773438 59.773438 L 708.523438 59.773438 L 708.523438 708.523438 L 59.773438 708.523438 Z M 59.773438 59.773438 " clip-rule="nonzero"/></clipPath><clipPath id="6e9c135d91"><path d="M 34.230469 34.230469 L 733.980469 34.230469 L 733.980469 733.980469 L 34.230469 733.980469 Z M 34.230469 34.230469 " clip-rule="nonzero"/></clipPath></defs><rect x="-76.8" width="921.6" fill="#ffffff" y="-76.799999" height="921.599993" fill-opacity="1"/><rect x="-76.8" width="921.6" fill="#ffffff" y="-76.799999" height="921.599993" fill-opacity="1"/><rect x="-76.8" width="921.6" fill="#ffffff" y="-76.799999" height="921.599993" fill-opacity="1"/><g clip-path="url(#2825369004)"><path fill="#ffffff" d="M 708.523438 384.148438 C 708.523438 389.457031 708.390625 394.761719 708.132812 400.0625 C 707.871094 405.367188 707.480469 410.660156 706.960938 415.941406 C 706.441406 421.226562 705.789062 426.492188 705.011719 431.742188 C 704.234375 436.996094 703.324219 442.222656 702.289062 447.429688 C 701.253906 452.636719 700.089844 457.816406 698.800781 462.964844 C 697.511719 468.113281 696.097656 473.226562 694.554688 478.308594 C 693.015625 483.386719 691.347656 488.429688 689.5625 493.425781 C 687.773438 498.425781 685.863281 503.375 683.832031 508.28125 C 681.800781 513.183594 679.648438 518.035156 677.378906 522.835938 C 675.109375 527.632812 672.722656 532.375 670.21875 537.058594 C 667.71875 541.738281 665.101562 546.355469 662.375 550.910156 C 659.644531 555.460938 656.804688 559.945312 653.855469 564.359375 C 650.90625 568.773438 647.851562 573.113281 644.6875 577.378906 C 641.527344 581.640625 638.261719 585.824219 634.894531 589.929688 C 631.523438 594.03125 628.058594 598.050781 624.492188 601.984375 C 620.929688 605.917969 617.269531 609.761719 613.515625 613.515625 C 609.761719 617.269531 605.917969 620.929688 601.984375 624.492188 C 598.050781 628.058594 594.03125 631.523438 589.929688 634.894531 C 585.824219 638.261719 581.640625 641.527344 577.378906 644.6875 C 573.113281 647.851562 568.773438 650.90625 564.359375 653.855469 C 559.945312 656.804688 555.460938 659.644531 550.910156 662.371094 C 546.355469 665.101562 541.738281 667.71875 537.058594 670.21875 C 532.375 672.722656 527.632812 675.109375 522.835938 677.378906 C 518.035156 679.648438 513.183594 681.800781 508.28125 683.832031 C 503.375 685.863281 498.425781 687.773438 493.425781 689.5625 C 488.425781 691.347656 483.386719 693.015625 478.308594 694.554688 C 473.226562 696.097656 468.113281 697.511719 462.964844 698.800781 C 457.816406 700.089844 452.636719 701.253906 447.429688 702.289062 C 442.222656 703.324219 436.996094 704.234375 431.742188 705.011719 C 426.492188 705.789062 421.226562 706.441406 415.941406 706.960938 C 410.660156 707.480469 405.367188 707.871094 400.0625 708.132812 C 394.761719 708.390625 389.457031 708.523438 384.148438 708.523438 C 378.839844 708.523438 373.535156 708.390625 368.230469 708.132812 C 362.929688 707.871094 357.636719 707.480469 352.351562 706.960938 C 347.070312 706.441406 341.804688 705.789062 336.550781 705.011719 C 331.300781 704.234375 326.070312 703.324219 320.863281 702.289062 C 315.660156 701.253906 310.480469 700.089844 305.332031 698.800781 C 300.179688 697.511719 295.066406 696.097656 289.984375 694.554688 C 284.90625 693.015625 279.867188 691.347656 274.867188 689.5625 C 269.871094 687.773438 264.917969 685.863281 260.015625 683.832031 C 255.109375 681.800781 250.257812 679.648438 245.460938 677.378906 C 240.660156 675.109375 235.917969 672.722656 231.238281 670.21875 C 226.554688 667.71875 221.9375 665.101562 217.386719 662.371094 C 212.832031 659.644531 208.347656 656.804688 203.933594 653.855469 C 199.519531 650.90625 195.179688 647.851562 190.917969 644.6875 C 186.652344 641.527344 182.46875 638.261719 178.367188 634.894531 C 174.261719 631.523438 170.242188 628.058594 166.308594 624.492188 C 162.378906 620.929688 158.535156 617.269531 154.78125 613.515625 C 151.027344 609.761719 147.367188 605.917969 143.800781 601.984375 C 140.238281 598.050781 136.769531 594.03125 133.402344 589.929688 C 130.035156 585.824219 126.769531 581.640625 123.605469 577.378906 C 120.445312 573.113281 117.390625 568.773438 114.441406 564.359375 C 111.488281 559.945312 108.652344 555.460938 105.921875 550.910156 C 103.191406 546.355469 100.578125 541.738281 98.074219 537.058594 C 95.570312 532.375 93.1875 527.632812 90.914062 522.835938 C 88.644531 518.035156 86.496094 513.183594 84.464844 508.28125 C 82.433594 503.375 80.523438 498.425781 78.734375 493.425781 C 76.945312 488.425781 75.28125 483.386719 73.738281 478.308594 C 72.199219 473.226562 70.785156 468.113281 69.492188 462.964844 C 68.203125 457.816406 67.039062 452.636719 66.003906 447.429688 C 64.96875 442.222656 64.0625 436.996094 63.285156 431.742188 C 62.503906 426.492188 61.855469 421.226562 61.335938 415.941406 C 60.8125 410.660156 60.421875 405.367188 60.164062 400.0625 C 59.902344 394.761719 59.773438 389.457031 59.773438 384.148438 C 59.773438 378.839844 59.902344 373.535156 60.164062 368.230469 C 60.421875 362.929688 60.8125 357.636719 61.335938 352.351562 C 61.855469 347.070312 62.503906 341.804688 63.285156 336.550781 C 64.0625 331.300781 64.96875 326.070312 66.003906 320.863281 C 67.039062 315.660156 68.203125 310.480469 69.492188 305.332031 C 70.785156 300.179688 72.199219 295.066406 73.738281 289.988281 C 75.28125 284.90625 76.945312 279.867188 78.734375 274.867188 C 80.523438 269.871094 82.433594 264.917969 84.464844 260.015625 C 86.496094 255.109375 88.644531 250.257812 90.914062 245.460938 C 93.1875 240.660156 95.570312 235.921875 98.074219 231.238281 C 100.578125 226.554688 103.191406 221.9375 105.921875 217.386719 C 108.652344 212.832031 111.488281 208.347656 114.441406 203.933594 C 117.390625 199.519531 120.445312 195.179688 123.605469 190.917969 C 126.769531 186.652344 130.035156 182.46875 133.402344 178.367188 C 136.769531 174.261719 140.238281 170.242188 143.800781 166.3125 C 147.367188 162.378906 151.027344 158.535156 154.78125 154.78125 C 158.535156 151.027344 162.378906 147.367188 166.308594 143.800781 C 170.242188 140.238281 174.261719 136.769531 178.367188 133.402344 C 182.46875 130.035156 186.652344 126.769531 190.917969 123.605469 C 195.179688 120.445312 199.519531 117.390625 203.933594 114.441406 C 208.347656 111.488281 212.832031 108.652344 217.386719 105.921875 C 221.9375 103.191406 226.554688 100.578125 231.238281 98.074219 C 235.917969 95.570312 240.660156 93.1875 245.460938 90.914062 C 250.257812 88.644531 255.109375 86.496094 260.015625 84.464844 C 264.917969 82.433594 269.871094 80.523438 274.867188 78.734375 C 279.867188 76.945312 284.90625 75.28125 289.984375 73.738281 C 295.066406 72.199219 300.179688 70.785156 305.332031 69.492188 C 310.480469 68.203125 315.660156 67.039062 320.863281 66.003906 C 326.070312 64.96875 331.300781 64.0625 336.550781 63.285156 C 341.804688 62.503906 347.070312 61.855469 352.351562 61.335938 C 357.636719 60.8125 362.929688 60.421875 368.230469 60.164062 C 373.535156 59.902344 378.839844 59.773438 384.148438 59.773438 C 389.457031 59.773438 394.761719 59.902344 400.0625 60.164062 C 405.367188 60.421875 410.660156 60.8125 415.941406 61.335938 C 421.226562 61.855469 426.492188 62.503906 431.742188 63.285156 C 436.996094 64.0625 442.222656 64.96875 447.429688 66.003906 C 452.636719 67.039062 457.816406 68.203125 462.964844 69.492188 C 468.113281 70.785156 473.226562 72.199219 478.308594 73.738281 C 483.386719 75.28125 488.425781 76.945312 493.425781 78.734375 C 498.425781 80.523438 503.375 82.433594 508.28125 84.464844 C 513.183594 86.496094 518.035156 88.644531 522.835938 90.914062 C 527.632812 93.1875 532.375 95.570312 537.058594 98.074219 C 541.738281 100.578125 546.355469 103.191406 550.910156 105.921875 C 555.464844 108.652344 559.945312 111.488281 564.359375 114.441406 C 568.773438 117.390625 573.113281 120.445312 577.378906 123.605469 C 581.640625 126.769531 585.824219 130.035156 589.929688 133.402344 C 594.03125 136.769531 598.050781 140.238281 601.984375 143.800781 C 605.917969 147.367188 609.761719 151.027344 613.515625 154.78125 C 617.269531 158.535156 620.929688 162.378906 624.492188 166.3125 C 628.058594 170.242188 631.523438 174.261719 634.894531 178.367188 C 638.261719 182.46875 641.527344 186.652344 644.6875 190.917969 C 647.851562 195.179688 650.90625 199.519531 653.855469 203.933594 C 656.804688 208.347656 659.644531 212.832031 662.375 217.386719 C 665.101562 221.9375 667.71875 226.554688 670.21875 231.238281 C 672.722656 235.921875 675.109375 240.660156 677.378906 245.460938 C 679.648438 250.257812 681.800781 255.109375 683.832031 260.015625 C 685.863281 264.917969 687.773438 269.871094 689.5625 274.867188 C 691.347656 279.867188 693.015625 284.90625 694.554688 289.988281 C 696.097656 295.066406 697.511719 300.179688 698.800781 305.332031 C 700.089844 310.480469 701.253906 315.660156 702.289062 320.863281 C 703.324219 326.070312 704.234375 331.300781 705.011719 336.550781 C 705.789062 341.804688 706.441406 347.070312 706.960938 352.351562 C 707.480469 357.636719 707.871094 362.929688 708.132812 368.230469 C 708.390625 373.535156 708.523438 378.839844 708.523438 384.148438 Z M 708.523438 384.148438 " fill-opacity="1" fill-rule="nonzero"/></g><g clip-path="url(#6e9c135d91)"><path fill="#231f20" d="M 722.320312 337.457031 L 524.054688 337.457031 L 524.054688 45.894531 C 524.054688 45.128906 523.980469 44.371094 523.832031 43.617188 C 523.683594 42.867188 523.460938 42.136719 523.167969 41.429688 C 522.875 40.722656 522.515625 40.050781 522.089844 39.414062 C 521.664062 38.777344 521.183594 38.1875 520.640625 37.648438 C 520.097656 37.105469 519.507812 36.621094 518.871094 36.195312 C 518.234375 35.769531 517.5625 35.410156 516.855469 35.117188 C 516.148438 34.824219 515.417969 34.605469 514.667969 34.457031 C 513.917969 34.304688 513.160156 34.230469 512.394531 34.230469 L 255.820312 34.230469 C 255.054688 34.230469 254.292969 34.304688 253.542969 34.457031 C 252.792969 34.605469 252.0625 34.824219 251.355469 35.117188 C 250.648438 35.410156 249.976562 35.769531 249.339844 36.195312 C 248.703125 36.621094 248.113281 37.105469 247.570312 37.648438 C 247.03125 38.1875 246.546875 38.777344 246.121094 39.414062 C 245.695312 40.050781 245.335938 40.722656 245.042969 41.429688 C 244.75 42.136719 244.53125 42.867188 244.378906 43.617188 C 244.230469 44.371094 244.15625 45.128906 244.15625 45.894531 L 244.15625 337.457031 L 45.894531 337.457031 C 45.128906 337.457031 44.371094 337.53125 43.617188 337.679688 C 42.867188 337.828125 42.136719 338.050781 41.429688 338.34375 C 40.722656 338.636719 40.050781 338.996094 39.414062 339.421875 C 38.777344 339.847656 38.1875 340.332031 37.648438 340.871094 C 37.105469 341.414062 36.621094 342.003906 36.195312 342.640625 C 35.769531 343.277344 35.410156 343.949219 35.117188 344.65625 C 34.824219 345.363281 34.605469 346.09375 34.457031 346.84375 C 34.304688 347.59375 34.230469 348.351562 34.230469 349.117188 L 34.230469 733.980469 L 733.980469 733.980469 L 733.980469 349.117188 C 733.980469 348.351562 733.90625 347.59375 733.757812 346.84375 C 733.609375 346.09375 733.386719 345.363281 733.09375 344.65625 C 732.800781 343.949219 732.441406 343.277344 732.015625 342.640625 C 731.589844 342.003906 731.105469 341.414062 730.566406 340.871094 C 730.023438 340.332031 729.433594 339.847656 728.796875 339.421875 C 728.160156 338.996094 727.488281 338.636719 726.78125 338.34375 C 726.074219 338.050781 725.34375 337.828125 724.59375 337.679688 C 723.84375 337.53125 723.085938 337.457031 722.320312 337.457031 Z M 267.480469 57.554688 L 500.730469 57.554688 L 500.730469 80.882812 L 267.480469 80.882812 Z M 267.480469 104.207031 L 500.730469 104.207031 L 500.730469 337.457031 L 267.480469 337.457031 Z M 80.882812 710.65625 L 57.554688 710.65625 L 57.554688 617.355469 L 80.882812 617.355469 Z M 80.882812 594.03125 L 57.554688 594.03125 L 57.554688 547.382812 L 80.882812 547.382812 Z M 80.882812 524.054688 L 57.554688 524.054688 L 57.554688 477.40625 L 80.882812 477.40625 Z M 80.882812 454.082031 L 57.554688 454.082031 L 57.554688 407.429688 L 80.882812 407.429688 Z M 220.832031 710.65625 L 104.207031 710.65625 L 104.207031 407.429688 L 220.832031 407.429688 Z M 267.480469 710.65625 L 244.15625 710.65625 L 244.15625 407.429688 L 267.480469 407.429688 Z M 407.429688 710.65625 L 360.78125 710.65625 L 360.78125 652.34375 C 360.78125 651.578125 360.855469 650.820312 361.003906 650.070312 C 361.15625 649.316406 361.375 648.589844 361.667969 647.878906 C 361.960938 647.171875 362.320312 646.5 362.746094 645.863281 C 363.171875 645.226562 363.65625 644.636719 364.195312 644.097656 C 364.738281 643.554688 365.328125 643.070312 365.964844 642.648438 C 366.601562 642.222656 367.273438 641.863281 367.980469 641.570312 C 368.6875 641.277344 369.417969 641.054688 370.167969 640.90625 C 370.917969 640.757812 371.679688 640.679688 372.445312 640.679688 L 395.769531 640.679688 C 396.535156 640.679688 397.292969 640.757812 398.042969 640.90625 C 398.792969 641.054688 399.523438 641.277344 400.230469 641.570312 C 400.9375 641.863281 401.609375 642.222656 402.246094 642.648438 C 402.882812 643.070312 403.472656 643.554688 404.015625 644.097656 C 404.558594 644.636719 405.039062 645.226562 405.464844 645.863281 C 405.890625 646.5 406.25 647.171875 406.542969 647.878906 C 406.835938 648.589844 407.058594 649.316406 407.207031 650.070312 C 407.355469 650.820312 407.429688 651.578125 407.429688 652.34375 Z M 477.40625 430.757812 L 430.757812 430.757812 L 430.757812 454.082031 L 477.40625 454.082031 L 477.40625 477.40625 L 360.78125 477.40625 L 360.78125 500.730469 L 477.40625 500.730469 L 477.40625 524.054688 L 430.757812 524.054688 L 430.757812 547.382812 L 477.40625 547.382812 L 477.40625 570.707031 L 360.78125 570.707031 L 360.78125 594.03125 L 477.40625 594.03125 L 477.40625 710.65625 L 430.757812 710.65625 L 430.757812 652.34375 C 430.753906 651.199219 430.695312 650.058594 430.578125 648.917969 C 430.464844 647.777344 430.292969 646.648438 430.066406 645.523438 C 429.839844 644.402344 429.558594 643.292969 429.226562 642.199219 C 428.890625 641.105469 428.503906 640.027344 428.066406 638.972656 C 427.625 637.914062 427.136719 636.878906 426.59375 635.871094 C 426.054688 634.863281 425.464844 633.882812 424.828125 632.929688 C 424.191406 631.980469 423.507812 631.0625 422.78125 630.175781 C 422.054688 629.292969 421.289062 628.445312 420.476562 627.632812 C 419.667969 626.824219 418.820312 626.054688 417.9375 625.328125 C 417.050781 624.601562 416.132812 623.921875 415.183594 623.285156 C 414.230469 622.648438 413.25 622.058594 412.242188 621.519531 C 411.230469 620.976562 410.199219 620.488281 409.140625 620.046875 C 408.085938 619.609375 407.007812 619.21875 405.914062 618.886719 C 404.816406 618.550781 403.710938 618.273438 402.585938 618.046875 C 401.464844 617.820312 400.332031 617.648438 399.195312 617.535156 C 398.054688 617.417969 396.914062 617.359375 395.769531 617.355469 L 372.445312 617.355469 C 371.296875 617.359375 370.15625 617.417969 369.015625 617.535156 C 367.878906 617.648438 366.746094 617.820312 365.625 618.046875 C 364.503906 618.273438 363.394531 618.550781 362.300781 618.886719 C 361.203125 619.21875 360.128906 619.609375 359.070312 620.046875 C 358.011719 620.488281 356.980469 620.976562 355.972656 621.519531 C 354.960938 622.058594 353.980469 622.648438 353.03125 623.285156 C 352.078125 623.921875 351.160156 624.601562 350.277344 625.328125 C 349.390625 626.058594 348.542969 626.824219 347.734375 627.632812 C 346.925781 628.445312 346.15625 629.292969 345.429688 630.175781 C 344.703125 631.0625 344.023438 631.980469 343.382812 632.929688 C 342.746094 633.882812 342.160156 634.863281 341.617188 635.871094 C 341.078125 636.878906 340.585938 637.914062 340.148438 638.972656 C 339.707031 640.027344 339.320312 641.105469 338.984375 642.199219 C 338.652344 643.292969 338.371094 644.402344 338.144531 645.523438 C 337.917969 646.648438 337.75 647.777344 337.632812 648.917969 C 337.519531 650.058594 337.460938 651.199219 337.457031 652.34375 L 337.457031 710.65625 L 290.804688 710.65625 L 290.804688 594.03125 L 337.457031 594.03125 L 337.457031 570.707031 L 290.804688 570.707031 L 290.804688 547.382812 L 407.429688 547.382812 L 407.429688 524.054688 L 290.804688 524.054688 L 290.804688 500.730469 L 337.457031 500.730469 L 337.457031 477.40625 L 290.804688 477.40625 L 290.804688 454.082031 L 407.429688 454.082031 L 407.429688 430.757812 L 290.804688 430.757812 L 290.804688 407.429688 L 477.40625 407.429688 Z M 524.054688 710.65625 L 500.730469 710.65625 L 500.730469 407.429688 L 524.054688 407.429688 Z M 664.007812 710.65625 L 547.382812 710.65625 L 547.382812 407.429688 L 664.007812 407.429688 Z M 710.65625 710.65625 L 687.332031 710.65625 L 687.332031 617.355469 L 710.65625 617.355469 Z M 710.65625 594.03125 L 687.332031 594.03125 L 687.332031 547.382812 L 710.65625 547.382812 Z M 710.65625 524.054688 L 687.332031 524.054688 L 687.332031 477.40625 L 710.65625 477.40625 Z M 710.65625 454.082031 L 687.332031 454.082031 L 687.332031 407.429688 L 710.65625 407.429688 Z M 710.65625 384.105469 L 57.554688 384.105469 L 57.554688 360.78125 L 710.65625 360.78125 Z M 710.65625 384.105469 " fill-opacity="1" fill-rule="nonzero"/></g><path fill="#231f20" d="M 384.105469 127.53125 C 382.578125 127.53125 381.054688 127.570312 379.527344 127.644531 C 378.003906 127.71875 376.480469 127.832031 374.960938 127.980469 C 373.441406 128.128906 371.925781 128.316406 370.417969 128.542969 C 368.90625 128.765625 367.402344 129.027344 365.902344 129.324219 C 364.40625 129.621094 362.917969 129.957031 361.4375 130.328125 C 359.953125 130.699219 358.484375 131.105469 357.023438 131.546875 C 355.5625 131.992188 354.113281 132.472656 352.675781 132.984375 C 351.238281 133.5 349.8125 134.050781 348.402344 134.632812 C 346.992188 135.21875 345.59375 135.835938 344.214844 136.488281 C 342.835938 137.140625 341.472656 137.828125 340.125 138.546875 C 338.777344 139.269531 337.449219 140.019531 336.140625 140.804688 C 334.832031 141.589844 333.542969 142.40625 332.269531 143.253906 C 331 144.101562 329.753906 144.980469 328.527344 145.890625 C 327.300781 146.800781 326.097656 147.742188 324.917969 148.710938 C 323.738281 149.679688 322.582031 150.675781 321.449219 151.699219 C 320.316406 152.726562 319.210938 153.777344 318.132812 154.859375 C 317.054688 155.9375 316 157.042969 314.976562 158.175781 C 313.949219 159.304688 312.953125 160.460938 311.984375 161.640625 C 311.015625 162.824219 310.078125 164.027344 309.167969 165.253906 C 308.257812 166.480469 307.378906 167.726562 306.53125 168.996094 C 305.683594 170.265625 304.863281 171.554688 304.078125 172.867188 C 303.296875 174.175781 302.542969 175.503906 301.824219 176.851562 C 301.101562 178.195312 300.417969 179.558594 299.765625 180.941406 C 299.109375 182.320312 298.492188 183.714844 297.90625 185.125 C 297.324219 186.539062 296.773438 187.960938 296.261719 189.398438 C 295.746094 190.835938 295.265625 192.285156 294.824219 193.746094 C 294.378906 195.207031 293.972656 196.679688 293.601562 198.160156 C 293.230469 199.640625 292.898438 201.132812 292.597656 202.628906 C 292.300781 204.125 292.039062 205.628906 291.816406 207.140625 C 291.59375 208.652344 291.40625 210.167969 291.253906 211.6875 C 291.105469 213.207031 290.992188 214.726562 290.917969 216.253906 C 290.84375 217.777344 290.804688 219.304688 290.804688 220.832031 C 290.804688 222.359375 290.84375 223.882812 290.917969 225.410156 C 290.992188 226.933594 291.105469 228.457031 291.253906 229.976562 C 291.40625 231.496094 291.59375 233.011719 291.816406 234.519531 C 292.039062 236.03125 292.300781 237.535156 292.597656 239.03125 C 292.898438 240.53125 293.230469 242.019531 293.601562 243.5 C 293.972656 244.980469 294.378906 246.453125 294.824219 247.914062 C 295.265625 249.375 295.746094 250.824219 296.261719 252.261719 C 296.773438 253.699219 297.324219 255.125 297.90625 256.535156 C 298.492188 257.945312 299.109375 259.339844 299.765625 260.722656 C 300.417969 262.101562 301.101562 263.464844 301.824219 264.8125 C 302.542969 266.160156 303.296875 267.488281 304.078125 268.796875 C 304.863281 270.105469 305.683594 271.394531 306.53125 272.664062 C 307.378906 273.933594 308.257812 275.183594 309.167969 276.410156 C 310.078125 277.636719 311.015625 278.839844 311.984375 280.019531 C 312.953125 281.199219 313.949219 282.355469 314.976562 283.488281 C 316 284.617188 317.054688 285.722656 318.132812 286.804688 C 319.210938 287.882812 320.316406 288.9375 321.449219 289.960938 C 322.582031 290.988281 323.738281 291.984375 324.917969 292.953125 C 326.097656 293.921875 327.300781 294.859375 328.527344 295.769531 C 329.753906 296.679688 331 297.558594 332.269531 298.40625 C 333.542969 299.253906 334.832031 300.070312 336.140625 300.855469 C 337.449219 301.640625 338.777344 302.394531 340.125 303.113281 C 341.472656 303.835938 342.835938 304.519531 344.214844 305.171875 C 345.59375 305.824219 346.992188 306.445312 348.402344 307.027344 C 349.8125 307.613281 351.238281 308.164062 352.675781 308.675781 C 354.113281 309.191406 355.5625 309.671875 357.023438 310.113281 C 358.484375 310.558594 359.953125 310.964844 361.4375 311.335938 C 362.917969 311.707031 364.40625 312.039062 365.902344 312.339844 C 367.402344 312.636719 368.90625 312.898438 370.417969 313.121094 C 371.925781 313.34375 373.441406 313.53125 374.960938 313.683594 C 376.480469 313.832031 378.003906 313.945312 379.527344 314.019531 C 381.054688 314.09375 382.578125 314.132812 384.105469 314.132812 C 385.632812 314.132812 387.160156 314.09375 388.683594 314.019531 C 390.210938 313.945312 391.730469 313.832031 393.25 313.683594 C 394.769531 313.53125 396.285156 313.34375 397.796875 313.121094 C 399.304688 312.898438 400.808594 312.636719 402.308594 312.339844 C 403.804688 312.039062 405.296875 311.707031 406.777344 311.335938 C 408.257812 310.964844 409.730469 310.558594 411.191406 310.113281 C 412.652344 309.671875 414.101562 309.191406 415.539062 308.675781 C 416.976562 308.164062 418.398438 307.613281 419.808594 307.027344 C 421.222656 306.445312 422.617188 305.828125 423.996094 305.171875 C 425.378906 304.519531 426.742188 303.835938 428.085938 303.113281 C 429.433594 302.394531 430.761719 301.640625 432.070312 300.855469 C 433.382812 300.070312 434.671875 299.253906 435.941406 298.40625 C 437.210938 297.558594 438.457031 296.679688 439.683594 295.769531 C 440.910156 294.859375 442.113281 293.921875 443.296875 292.953125 C 444.476562 291.984375 445.632812 290.988281 446.761719 289.960938 C 447.894531 288.9375 449 287.882812 450.078125 286.804688 C 451.160156 285.722656 452.210938 284.617188 453.238281 283.488281 C 454.261719 282.355469 455.257812 281.199219 456.226562 280.019531 C 457.195312 278.839844 458.136719 277.636719 459.046875 276.410156 C 459.953125 275.183594 460.832031 273.933594 461.683594 272.664062 C 462.53125 271.394531 463.347656 270.105469 464.132812 268.796875 C 464.917969 267.488281 465.667969 266.160156 466.390625 264.8125 C 467.109375 263.464844 467.796875 262.101562 468.449219 260.722656 C 469.101562 259.339844 469.71875 257.945312 470.304688 256.535156 C 470.886719 255.125 471.4375 253.699219 471.953125 252.261719 C 472.464844 250.824219 472.945312 249.375 473.386719 247.914062 C 473.832031 246.453125 474.238281 244.980469 474.609375 243.5 C 474.980469 242.019531 475.316406 240.53125 475.613281 239.03125 C 475.910156 237.535156 476.171875 236.03125 476.394531 234.519531 C 476.621094 233.011719 476.808594 231.496094 476.957031 229.976562 C 477.105469 228.457031 477.21875 226.933594 477.292969 225.410156 C 477.367188 223.882812 477.40625 222.359375 477.40625 220.832031 C 477.402344 219.304688 477.363281 217.78125 477.289062 216.253906 C 477.210938 214.730469 477.097656 213.210938 476.945312 211.691406 C 476.792969 210.171875 476.605469 208.65625 476.378906 207.148438 C 476.152344 205.636719 475.890625 204.136719 475.59375 202.636719 C 475.292969 201.140625 474.957031 199.652344 474.585938 198.171875 C 474.210938 196.691406 473.804688 195.222656 473.359375 193.761719 C 472.914062 192.300781 472.4375 190.851562 471.921875 189.417969 C 471.40625 187.980469 470.855469 186.554688 470.269531 185.148438 C 469.683594 183.738281 469.066406 182.34375 468.414062 180.964844 C 467.757812 179.582031 467.070312 178.222656 466.351562 176.875 C 465.632812 175.53125 464.878906 174.203125 464.09375 172.894531 C 463.308594 171.585938 462.492188 170.296875 461.644531 169.027344 C 460.792969 167.757812 459.914062 166.511719 459.007812 165.285156 C 458.097656 164.058594 457.15625 162.855469 456.1875 161.675781 C 455.21875 160.496094 454.222656 159.339844 453.199219 158.210938 C 452.171875 157.078125 451.121094 155.976562 450.042969 154.894531 C 448.960938 153.816406 447.855469 152.765625 446.726562 151.738281 C 445.59375 150.714844 444.441406 149.71875 443.261719 148.75 C 442.082031 147.78125 440.878906 146.839844 439.652344 145.929688 C 438.425781 145.023438 437.179688 144.144531 435.910156 143.292969 C 434.640625 142.445312 433.351562 141.628906 432.042969 140.84375 C 430.734375 140.058594 429.40625 139.304688 428.0625 138.585938 C 426.714844 137.867188 425.355469 137.179688 423.972656 136.523438 C 422.59375 135.871094 421.199219 135.253906 419.789062 134.667969 C 418.382812 134.082031 416.957031 133.53125 415.519531 133.015625 C 414.085938 132.5 412.636719 132.023438 411.175781 131.578125 C 409.714844 131.132812 408.246094 130.726562 406.765625 130.351562 C 405.285156 129.980469 403.796875 129.644531 402.300781 129.34375 C 400.800781 129.046875 399.300781 128.785156 397.789062 128.558594 C 396.28125 128.332031 394.765625 128.144531 393.246094 127.992188 C 391.726562 127.839844 390.207031 127.726562 388.683594 127.648438 C 387.15625 127.574219 385.632812 127.535156 384.105469 127.53125 Z M 384.105469 290.804688 C 382.960938 290.804688 381.816406 290.777344 380.671875 290.722656 C 379.527344 290.664062 378.386719 290.582031 377.246094 290.46875 C 376.109375 290.355469 374.972656 290.21875 373.839844 290.046875 C 372.707031 289.878906 371.578125 289.683594 370.453125 289.460938 C 369.332031 289.238281 368.214844 288.988281 367.105469 288.710938 C 365.992188 288.429688 364.890625 288.125 363.792969 287.792969 C 362.699219 287.460938 361.609375 287.101562 360.53125 286.714844 C 359.453125 286.328125 358.386719 285.917969 357.328125 285.480469 C 356.269531 285.042969 355.222656 284.578125 354.1875 284.085938 C 353.152344 283.597656 352.128906 283.082031 351.121094 282.542969 C 350.109375 282.003906 349.113281 281.441406 348.132812 280.851562 C 347.148438 280.261719 346.183594 279.648438 345.230469 279.011719 C 344.277344 278.378906 343.34375 277.71875 342.421875 277.035156 C 341.503906 276.351562 340.601562 275.648438 339.714844 274.921875 C 338.828125 274.195312 337.960938 273.449219 337.113281 272.679688 C 336.265625 271.910156 335.4375 271.121094 334.625 270.3125 C 333.816406 269.5 333.027344 268.671875 332.257812 267.824219 C 331.488281 266.976562 330.742188 266.109375 330.015625 265.222656 C 329.289062 264.335938 328.582031 263.433594 327.902344 262.515625 C 327.21875 261.59375 326.558594 260.660156 325.925781 259.707031 C 325.289062 258.753906 324.675781 257.789062 324.085938 256.804688 C 323.496094 255.824219 322.933594 254.828125 322.394531 253.816406 C 321.855469 252.808594 321.339844 251.785156 320.847656 250.75 C 320.359375 249.714844 319.894531 248.667969 319.457031 247.609375 C 319.019531 246.550781 318.605469 245.484375 318.222656 244.40625 C 317.835938 243.328125 317.476562 242.238281 317.144531 241.144531 C 316.8125 240.046875 316.507812 238.945312 316.226562 237.832031 C 315.949219 236.722656 315.699219 235.605469 315.476562 234.484375 C 315.253906 233.359375 315.054688 232.230469 314.886719 231.097656 C 314.71875 229.964844 314.582031 228.828125 314.46875 227.691406 C 314.355469 226.550781 314.273438 225.410156 314.214844 224.265625 C 314.160156 223.121094 314.132812 221.976562 314.132812 220.832031 C 314.132812 219.6875 314.160156 218.542969 314.214844 217.398438 C 314.273438 216.253906 314.355469 215.113281 314.46875 213.972656 C 314.582031 212.832031 314.71875 211.695312 314.886719 210.5625 C 315.054688 209.429688 315.253906 208.304688 315.476562 207.179688 C 315.699219 206.054688 315.949219 204.941406 316.226562 203.828125 C 316.507812 202.71875 316.8125 201.613281 317.144531 200.519531 C 317.476562 199.421875 317.835938 198.335938 318.222656 197.257812 C 318.605469 196.179688 319.019531 195.109375 319.457031 194.054688 C 319.894531 192.996094 320.359375 191.949219 320.847656 190.914062 C 321.339844 189.878906 321.855469 188.855469 322.394531 187.84375 C 322.933594 186.835938 323.496094 185.839844 324.085938 184.855469 C 324.675781 183.875 325.289062 182.90625 325.925781 181.957031 C 326.558594 181.003906 327.21875 180.066406 327.902344 179.148438 C 328.582031 178.226562 329.289062 177.324219 330.015625 176.441406 C 330.742188 175.554688 331.488281 174.6875 332.257812 173.839844 C 333.027344 172.992188 333.816406 172.160156 334.625 171.351562 C 335.4375 170.542969 336.265625 169.753906 337.113281 168.984375 C 337.960938 168.214844 338.828125 167.464844 339.714844 166.738281 C 340.601562 166.011719 341.503906 165.308594 342.421875 164.625 C 343.34375 163.945312 344.277344 163.285156 345.230469 162.648438 C 346.183594 162.011719 347.148438 161.398438 348.132812 160.8125 C 349.113281 160.222656 350.109375 159.660156 351.121094 159.117188 C 352.128906 158.578125 353.152344 158.0625 354.1875 157.574219 C 355.222656 157.085938 356.269531 156.621094 357.328125 156.183594 C 358.386719 155.746094 359.453125 155.332031 360.53125 154.945312 C 361.609375 154.5625 362.699219 154.203125 363.792969 153.871094 C 364.890625 153.535156 365.992188 153.230469 367.105469 152.953125 C 368.214844 152.675781 369.332031 152.425781 370.453125 152.199219 C 371.578125 151.976562 372.707031 151.78125 373.839844 151.613281 C 374.972656 151.445312 376.109375 151.304688 377.246094 151.191406 C 378.386719 151.082031 379.527344 150.996094 380.671875 150.941406 C 381.816406 150.882812 382.960938 150.855469 384.105469 150.855469 C 385.25 150.855469 386.394531 150.882812 387.539062 150.941406 C 388.683594 150.996094 389.824219 151.082031 390.964844 151.191406 C 392.105469 151.304688 393.242188 151.445312 394.375 151.613281 C 395.507812 151.78125 396.632812 151.976562 397.757812 152.199219 C 398.878906 152.425781 399.996094 152.675781 401.109375 152.953125 C 402.21875 153.230469 403.324219 153.535156 404.417969 153.871094 C 405.515625 154.203125 406.601562 154.5625 407.679688 154.945312 C 408.757812 155.332031 409.828125 155.746094 410.882812 156.183594 C 411.941406 156.621094 412.988281 157.085938 414.023438 157.574219 C 415.058594 158.0625 416.082031 158.578125 417.09375 159.117188 C 418.101562 159.660156 419.097656 160.222656 420.082031 160.8125 C 421.0625 161.398438 422.03125 162.011719 422.980469 162.648438 C 423.933594 163.285156 424.871094 163.945312 425.789062 164.625 C 426.710938 165.308594 427.613281 166.011719 428.496094 166.738281 C 429.382812 167.464844 430.25 168.214844 431.097656 168.984375 C 431.945312 169.753906 432.777344 170.542969 433.585938 171.351562 C 434.394531 172.160156 435.183594 172.992188 435.953125 173.839844 C 436.722656 174.6875 437.472656 175.554688 438.199219 176.441406 C 438.925781 177.324219 439.628906 178.226562 440.3125 179.148438 C 440.992188 180.066406 441.652344 181.003906 442.289062 181.957031 C 442.925781 182.90625 443.535156 183.875 444.125 184.855469 C 444.714844 185.839844 445.277344 186.835938 445.820312 187.84375 C 446.359375 188.855469 446.875 189.878906 447.363281 190.914062 C 447.851562 191.949219 448.316406 192.996094 448.753906 194.054688 C 449.191406 195.109375 449.605469 196.179688 449.992188 197.257812 C 450.375 198.335938 450.734375 199.421875 451.066406 200.519531 C 451.402344 201.613281 451.707031 202.71875 451.984375 203.828125 C 452.261719 204.941406 452.511719 206.054688 452.738281 207.179688 C 452.960938 208.304688 453.15625 209.429688 453.324219 210.5625 C 453.492188 211.695312 453.632812 212.832031 453.746094 213.972656 C 453.855469 215.113281 453.941406 216.253906 453.996094 217.398438 C 454.054688 218.542969 454.082031 219.6875 454.082031 220.832031 C 454.082031 221.976562 454.054688 223.121094 453.996094 224.265625 C 453.941406 225.410156 453.855469 226.550781 453.746094 227.691406 C 453.632812 228.828125 453.492188 229.964844 453.324219 231.097656 C 453.15625 232.230469 452.960938 233.359375 452.738281 234.484375 C 452.511719 235.605469 452.261719 236.722656 451.984375 237.832031 C 451.707031 238.945312 451.402344 240.046875 451.066406 241.144531 C 450.734375 242.238281 450.375 243.328125 449.992188 244.40625 C 449.605469 245.484375 449.191406 246.550781 448.753906 247.609375 C 448.316406 248.667969 447.851562 249.714844 447.363281 250.75 C 446.875 251.785156 446.359375 252.808594 445.820312 253.816406 C 445.277344 254.828125 444.714844 255.824219 444.125 256.804688 C 443.535156 257.789062 442.925781 258.753906 442.289062 259.707031 C 441.652344 260.660156 440.992188 261.59375 440.3125 262.515625 C 439.628906 263.433594 438.925781 264.335938 438.199219 265.222656 C 437.472656 266.109375 436.722656 266.976562 435.953125 267.824219 C 435.183594 268.671875 434.394531 269.5 433.585938 270.3125 C 432.777344 271.121094 431.945312 271.910156 431.097656 272.679688 C 430.25 273.449219 429.382812 274.195312 428.496094 274.921875 C 427.613281 275.648438 426.710938 276.351562 425.789062 277.035156 C 424.871094 277.71875 423.933594 278.378906 422.980469 279.011719 C 422.03125 279.648438 421.0625 280.261719 420.082031 280.851562 C 419.097656 281.441406 418.101562 282.003906 417.09375 282.542969 C 416.082031 283.082031 415.058594 283.597656 414.023438 284.085938 C 412.988281 284.578125 411.941406 285.042969 410.882812 285.480469 C 409.828125 285.917969 408.757812 286.328125 407.679688 286.714844 C 406.601562 287.101562 405.515625 287.460938 404.417969 287.792969 C 403.324219 288.125 402.21875 288.429688 401.109375 288.710938 C 399.996094 288.988281 398.878906 289.238281 397.757812 289.460938 C 396.632812 289.683594 395.507812 289.878906 394.375 290.046875 C 393.242188 290.21875 392.105469 290.355469 390.964844 290.46875 C 389.824219 290.582031 388.683594 290.664062 387.539062 290.722656 C 386.394531 290.777344 385.25 290.804688 384.105469 290.804688 Z M 384.105469 290.804688 " fill-opacity="1" fill-rule="nonzero"/><path fill="#231f20" d="M 430.757812 209.167969 L 430.757812 232.492188 L 384.105469 232.492188 C 383.339844 232.492188 382.582031 232.417969 381.832031 232.269531 C 381.078125 232.121094 380.351562 231.898438 379.644531 231.605469 C 378.9375 231.3125 378.261719 230.953125 377.625 230.527344 C 376.988281 230.101562 376.402344 229.621094 375.859375 229.078125 C 375.316406 228.535156 374.835938 227.945312 374.410156 227.308594 C 373.984375 226.671875 373.625 226 373.332031 225.292969 C 373.039062 224.585938 372.816406 223.859375 372.667969 223.105469 C 372.519531 222.355469 372.445312 221.597656 372.445312 220.832031 L 372.445312 174.179688 L 395.769531 174.179688 L 395.769531 209.167969 Z M 430.757812 209.167969 " fill-opacity="1" fill-rule="nonzero"/><path fill="#231f20" d="M 570.707031 430.757812 L 594.03125 430.757812 L 594.03125 477.40625 L 570.707031 477.40625 Z M 570.707031 430.757812 " fill-opacity="1" fill-rule="nonzero"/><path fill="#231f20" d="M 617.355469 430.757812 L 640.679688 430.757812 L 640.679688 477.40625 L 617.355469 477.40625 Z M 617.355469 430.757812 " fill-opacity="1" fill-rule="nonzero"/><path fill="#231f20" d="M 570.707031 500.730469 L 594.03125 500.730469 L 594.03125 547.382812 L 570.707031 547.382812 Z M 570.707031 500.730469 " fill-opacity="1" fill-rule="nonzero"/><path fill="#231f20" d="M 617.355469 500.730469 L 640.679688 500.730469 L 640.679688 547.382812 L 617.355469 547.382812 Z M 617.355469 500.730469 " fill-opacity="1" fill-rule="nonzero"/><path fill="#231f20" d="M 570.707031 570.707031 L 594.03125 570.707031 L 594.03125 617.355469 L 570.707031 617.355469 Z M 570.707031 570.707031 " fill-opacity="1" fill-rule="nonzero"/><path fill="#231f20" d="M 617.355469 570.707031 L 640.679688 570.707031 L 640.679688 617.355469 L 617.355469 617.355469 Z M 617.355469 570.707031 " fill-opacity="1" fill-rule="nonzero"/><path fill="#231f20" d="M 570.707031 640.679688 L 594.03125 640.679688 L 594.03125 687.332031 L 570.707031 687.332031 Z M 570.707031 640.679688 " fill-opacity="1" fill-rule="nonzero"/><path fill="#231f20" d="M 617.355469 640.679688 L 640.679688 640.679688 L 640.679688 687.332031 L 617.355469 687.332031 Z M 617.355469 640.679688 " fill-opacity="1" fill-rule="nonzero"/><path fill="#231f20" d="M 174.179688 430.757812 L 197.507812 430.757812 L 197.507812 477.40625 L 174.179688 477.40625 Z M 174.179688 430.757812 " fill-opacity="1" fill-rule="nonzero"/><path fill="#231f20" d="M 127.53125 430.757812 L 150.855469 430.757812 L 150.855469 477.40625 L 127.53125 477.40625 Z M 127.53125 430.757812 " fill-opacity="1" fill-rule="nonzero"/><path fill="#231f20" d="M 174.179688 500.730469 L 197.507812 500.730469 L 197.507812 547.382812 L 174.179688 547.382812 Z M 174.179688 500.730469 " fill-opacity="1" fill-rule="nonzero"/><path fill="#231f20" d="M 127.53125 500.730469 L 150.855469 500.730469 L 150.855469 547.382812 L 127.53125 547.382812 Z M 127.53125 500.730469 " fill-opacity="1" fill-rule="nonzero"/><path fill="#231f20" d="M 174.179688 570.707031 L 197.507812 570.707031 L 197.507812 617.355469 L 174.179688 617.355469 Z M 174.179688 570.707031 " fill-opacity="1" fill-rule="nonzero"/><path fill="#231f20" d="M 127.53125 570.707031 L 150.855469 570.707031 L 150.855469 617.355469 L 127.53125 617.355469 Z M 127.53125 570.707031 " fill-opacity="1" fill-rule="nonzero"/><path fill="#231f20" d="M 174.179688 640.679688 L 197.507812 640.679688 L 197.507812 687.332031 L 174.179688 687.332031 Z M 174.179688 640.679688 " fill-opacity="1" fill-rule="nonzero"/><path fill="#231f20" d="M 127.53125 640.679688 L 150.855469 640.679688 L 150.855469 687.332031 L 127.53125 687.332031 Z M 127.53125 640.679688 " fill-opacity="1" fill-rule="nonzero"/></svg>