<svg xmlns="http://www.w3.org/2000/svg" xmlns:xlink="http://www.w3.org/1999/xlink" width="1024" zoomAndPan="magnify" viewBox="0 0 768 767.999994" height="1024" preserveAspectRatio="xMidYMid meet" version="1.0"><rect x="-76.8" width="921.6" fill="#ffffff" y="-76.799999" height="921.599993" fill-opacity="1"/><rect x="-76.8" width="921.6" fill="#ffffff" y="-76.799999" height="921.599993" fill-opacity="1"/><rect x="-76.8" width="921.6" fill="#c6deff" y="-76.799999" height="921.599993" fill-opacity="1"/><path fill="#000000" d="M 139.753906 321.550781 C 140.691406 321.550781 141.628906 321.601562 142.5625 321.695312 C 143.5 321.792969 144.425781 321.9375 145.347656 322.128906 C 146.269531 322.320312 147.179688 322.558594 148.078125 322.84375 C 148.976562 323.132812 149.859375 323.460938 150.726562 323.839844 C 151.59375 324.214844 152.441406 324.636719 153.269531 325.097656 C 154.097656 325.5625 154.902344 326.066406 155.683594 326.613281 C 156.464844 327.160156 157.21875 327.746094 157.945312 328.371094 C 158.671875 328.992188 159.367188 329.652344 160.03125 330.347656 C 160.695312 331.042969 161.324219 331.773438 161.917969 332.53125 C 162.515625 333.292969 163.074219 334.082031 163.597656 334.898438 C 164.117188 335.71875 164.601562 336.5625 165.042969 337.429688 C 165.484375 338.296875 165.886719 339.183594 166.246094 340.09375 C 166.605469 341 166.921875 341.925781 167.195312 342.867188 C 167.464844 343.808594 167.695312 344.761719 167.878906 345.726562 C 168.0625 346.691406 168.199219 347.664062 168.289062 348.640625 C 168.382812 349.621094 168.429688 350.601562 168.429688 351.585938 L 168.429688 638.621094 C 168.429688 639.605469 168.382812 640.585938 168.289062 641.566406 C 168.199219 642.546875 168.0625 643.515625 167.878906 644.480469 C 167.695312 645.445312 167.464844 646.398438 167.195312 647.339844 C 166.921875 648.28125 166.605469 649.207031 166.246094 650.117188 C 165.886719 651.023438 165.484375 651.914062 165.042969 652.78125 C 164.601562 653.648438 164.117188 654.492188 163.597656 655.308594 C 163.074219 656.125 162.515625 656.914062 161.917969 657.675781 C 161.324219 658.4375 160.695312 659.164062 160.03125 659.859375 C 159.367188 660.554688 158.671875 661.214844 157.945312 661.839844 C 157.21875 662.460938 156.464844 663.046875 155.683594 663.59375 C 154.902344 664.140625 154.097656 664.644531 153.269531 665.109375 C 152.441406 665.574219 151.59375 665.992188 150.726562 666.371094 C 149.859375 666.746094 148.976562 667.078125 148.078125 667.363281 C 147.179688 667.648438 146.269531 667.886719 145.347656 668.078125 C 144.425781 668.269531 143.5 668.414062 142.5625 668.511719 C 141.628906 668.609375 140.691406 668.65625 139.753906 668.65625 C 138.8125 668.65625 137.878906 668.609375 136.941406 668.511719 C 136.007812 668.414062 135.078125 668.269531 134.160156 668.078125 C 133.238281 667.886719 132.328125 667.648438 131.429688 667.363281 C 130.53125 667.078125 129.648438 666.746094 128.78125 666.371094 C 127.910156 665.992188 127.0625 665.574219 126.234375 665.109375 C 125.40625 664.644531 124.601562 664.140625 123.820312 663.59375 C 123.039062 663.046875 122.289062 662.460938 121.5625 661.839844 C 120.835938 661.214844 120.140625 660.554688 119.476562 659.859375 C 118.8125 659.164062 118.183594 658.4375 117.585938 657.675781 C 116.992188 656.914062 116.433594 656.125 115.910156 655.308594 C 115.386719 654.492188 114.90625 653.648438 114.464844 652.78125 C 114.019531 651.914062 113.621094 651.023438 113.261719 650.117188 C 112.902344 649.207031 112.585938 648.28125 112.3125 647.339844 C 112.039062 646.398438 111.8125 645.445312 111.628906 644.480469 C 111.445312 643.515625 111.308594 642.546875 111.214844 641.566406 C 111.125 640.585938 111.078125 639.605469 111.078125 638.621094 L 111.078125 351.585938 C 111.078125 350.601562 111.125 349.621094 111.214844 348.640625 C 111.308594 347.664062 111.445312 346.691406 111.628906 345.726562 C 111.8125 344.761719 112.039062 343.808594 112.3125 342.867188 C 112.585938 341.925781 112.902344 341 113.261719 340.09375 C 113.621094 339.183594 114.019531 338.296875 114.464844 337.429688 C 114.90625 336.5625 115.386719 335.71875 115.910156 334.898438 C 116.433594 334.082031 116.992188 333.292969 117.585938 332.53125 C 118.183594 331.773438 118.8125 331.042969 119.476562 330.347656 C 120.140625 329.652344 120.835938 328.992188 121.5625 328.371094 C 122.289062 327.746094 123.039062 327.160156 123.820312 326.613281 C 124.601562 326.066406 125.40625 325.5625 126.234375 325.097656 C 127.0625 324.636719 127.910156 324.214844 128.78125 323.839844 C 129.648438 323.460938 130.53125 323.132812 131.429688 322.84375 C 132.328125 322.558594 133.238281 322.320312 134.160156 322.128906 C 135.078125 321.9375 136.007812 321.792969 136.941406 321.695312 C 137.878906 321.601562 138.8125 321.550781 139.753906 321.550781 Z M 139.753906 321.550781 " fill-opacity="1" fill-rule="nonzero"/><path fill="#000000" d="M 233.601562 321.550781 C 234.542969 321.550781 235.476562 321.601562 236.414062 321.695312 C 237.347656 321.792969 238.277344 321.9375 239.195312 322.128906 C 240.117188 322.320312 241.027344 322.558594 241.925781 322.84375 C 242.824219 323.132812 243.707031 323.460938 244.574219 323.839844 C 245.445312 324.214844 246.292969 324.636719 247.121094 325.097656 C 247.949219 325.5625 248.753906 326.066406 249.535156 326.613281 C 250.3125 327.160156 251.066406 327.746094 251.792969 328.371094 C 252.519531 328.992188 253.214844 329.652344 253.878906 330.347656 C 254.542969 331.042969 255.171875 331.773438 255.769531 332.53125 C 256.363281 333.292969 256.921875 334.082031 257.445312 334.898438 C 257.964844 335.71875 258.449219 336.5625 258.890625 337.429688 C 259.335938 338.296875 259.734375 339.183594 260.09375 340.09375 C 260.453125 341 260.769531 341.925781 261.042969 342.867188 C 261.316406 343.808594 261.542969 344.761719 261.726562 345.726562 C 261.910156 346.691406 262.046875 347.664062 262.140625 348.640625 C 262.230469 349.621094 262.277344 350.601562 262.277344 351.585938 L 262.277344 638.621094 C 262.277344 639.605469 262.230469 640.585938 262.140625 641.566406 C 262.046875 642.546875 261.910156 643.515625 261.726562 644.480469 C 261.542969 645.445312 261.316406 646.398438 261.042969 647.339844 C 260.769531 648.28125 260.453125 649.207031 260.09375 650.117188 C 259.734375 651.023438 259.335938 651.914062 258.890625 652.78125 C 258.449219 653.648438 257.964844 654.492188 257.445312 655.308594 C 256.921875 656.125 256.363281 656.914062 255.769531 657.675781 C 255.171875 658.4375 254.542969 659.164062 253.878906 659.859375 C 253.214844 660.554688 252.519531 661.214844 251.792969 661.839844 C 251.066406 662.460938 250.3125 663.046875 249.535156 663.59375 C 248.753906 664.140625 247.949219 664.644531 247.121094 665.109375 C 246.292969 665.574219 245.445312 665.992188 244.574219 666.371094 C 243.707031 666.746094 242.824219 667.078125 241.925781 667.363281 C 241.027344 667.648438 240.117188 667.886719 239.195312 668.078125 C 238.277344 668.269531 237.347656 668.414062 236.414062 668.511719 C 235.476562 668.609375 234.542969 668.65625 233.601562 668.65625 C 232.664062 668.65625 231.726562 668.609375 230.792969 668.511719 C 229.855469 668.414062 228.929688 668.269531 228.007812 668.078125 C 227.085938 667.886719 226.175781 667.648438 225.277344 667.363281 C 224.378906 667.078125 223.496094 666.746094 222.628906 666.371094 C 221.761719 665.992188 220.914062 665.574219 220.085938 665.109375 C 219.257812 664.644531 218.453125 664.140625 217.671875 663.59375 C 216.890625 663.046875 216.136719 662.460938 215.410156 661.839844 C 214.683594 661.214844 213.988281 660.554688 213.324219 659.859375 C 212.660156 659.164062 212.03125 658.4375 211.4375 657.675781 C 210.839844 656.914062 210.28125 656.125 209.757812 655.308594 C 209.238281 654.492188 208.753906 653.648438 208.3125 652.78125 C 207.871094 651.914062 207.46875 651.023438 207.109375 650.117188 C 206.75 649.207031 206.433594 648.28125 206.160156 647.339844 C 205.890625 646.398438 205.660156 645.445312 205.476562 644.480469 C 205.292969 643.515625 205.15625 642.546875 205.066406 641.566406 C 204.972656 640.585938 204.925781 639.605469 204.925781 638.621094 L 204.925781 351.585938 C 204.925781 350.601562 204.972656 349.621094 205.066406 348.640625 C 205.15625 347.664062 205.292969 346.691406 205.476562 345.726562 C 205.660156 344.761719 205.890625 343.808594 206.160156 342.867188 C 206.433594 341.925781 206.75 341 207.109375 340.09375 C 207.46875 339.183594 207.871094 338.296875 208.3125 337.429688 C 208.753906 336.5625 209.238281 335.71875 209.757812 334.898438 C 210.28125 334.082031 210.839844 333.292969 211.4375 332.53125 C 212.03125 331.773438 212.660156 331.042969 213.324219 330.347656 C 213.988281 329.652344 214.683594 328.992188 215.410156 328.371094 C 216.136719 327.746094 216.890625 327.160156 217.671875 326.613281 C 218.453125 326.066406 219.257812 325.5625 220.085938 325.097656 C 220.914062 324.636719 221.761719 324.214844 222.628906 323.839844 C 223.496094 323.460938 224.378906 323.132812 225.277344 322.84375 C 226.175781 322.558594 227.085938 322.320312 228.007812 322.128906 C 228.929688 321.9375 229.855469 321.792969 230.792969 321.695312 C 231.726562 321.601562 232.664062 321.550781 233.601562 321.550781 Z M 233.601562 321.550781 " fill-opacity="1" fill-rule="nonzero"/><path fill="#000000" d="M 327.453125 321.550781 C 328.390625 321.550781 329.328125 321.601562 330.261719 321.695312 C 331.195312 321.792969 332.125 321.9375 333.046875 322.128906 C 333.96875 322.320312 334.875 322.558594 335.777344 322.84375 C 336.675781 323.132812 337.558594 323.460938 338.425781 323.839844 C 339.292969 324.214844 340.140625 324.636719 340.96875 325.097656 C 341.796875 325.5625 342.601562 326.066406 343.382812 326.613281 C 344.164062 327.160156 344.917969 327.746094 345.644531 328.371094 C 346.367188 328.992188 347.0625 329.652344 347.726562 330.347656 C 348.390625 331.042969 349.023438 331.773438 349.617188 332.53125 C 350.214844 333.292969 350.773438 334.082031 351.292969 334.898438 C 351.816406 335.71875 352.296875 336.5625 352.742188 337.429688 C 353.183594 338.296875 353.585938 339.183594 353.945312 340.09375 C 354.304688 341 354.621094 341.925781 354.890625 342.867188 C 355.164062 343.808594 355.394531 344.761719 355.574219 345.726562 C 355.757812 346.691406 355.898438 347.664062 355.988281 348.640625 C 356.082031 349.621094 356.128906 350.601562 356.128906 351.585938 L 356.128906 638.621094 C 356.128906 639.605469 356.082031 640.585938 355.988281 641.566406 C 355.898438 642.546875 355.757812 643.515625 355.574219 644.480469 C 355.394531 645.445312 355.164062 646.398438 354.890625 647.339844 C 354.621094 648.28125 354.304688 649.207031 353.945312 650.117188 C 353.585938 651.023438 353.183594 651.914062 352.742188 652.78125 C 352.296875 653.648438 351.816406 654.492188 351.292969 655.308594 C 350.773438 656.125 350.214844 656.914062 349.617188 657.675781 C 349.023438 658.4375 348.390625 659.164062 347.726562 659.859375 C 347.0625 660.554688 346.367188 661.214844 345.644531 661.839844 C 344.917969 662.460938 344.164062 663.046875 343.382812 663.59375 C 342.601562 664.140625 341.796875 664.644531 340.96875 665.109375 C 340.140625 665.574219 339.292969 665.992188 338.425781 666.371094 C 337.558594 666.746094 336.675781 667.078125 335.777344 667.363281 C 334.875 667.648438 333.96875 667.886719 333.046875 668.078125 C 332.125 668.269531 331.195312 668.414062 330.261719 668.511719 C 329.328125 668.609375 328.390625 668.65625 327.453125 668.65625 C 326.511719 668.65625 325.574219 668.609375 324.640625 668.511719 C 323.707031 668.414062 322.777344 668.269531 321.855469 668.078125 C 320.9375 667.886719 320.027344 667.648438 319.128906 667.363281 C 318.230469 667.078125 317.34375 666.746094 316.476562 666.371094 C 315.609375 665.992188 314.761719 665.574219 313.933594 665.109375 C 313.105469 664.644531 312.300781 664.140625 311.519531 663.59375 C 310.738281 663.046875 309.984375 662.460938 309.261719 661.839844 C 308.535156 661.214844 307.839844 660.554688 307.175781 659.859375 C 306.511719 659.164062 305.882812 658.4375 305.285156 657.675781 C 304.6875 656.914062 304.128906 656.125 303.609375 655.308594 C 303.085938 654.492188 302.605469 653.648438 302.164062 652.78125 C 301.71875 651.914062 301.316406 651.023438 300.957031 650.117188 C 300.597656 649.207031 300.285156 648.28125 300.011719 647.339844 C 299.738281 646.398438 299.511719 645.445312 299.328125 644.480469 C 299.144531 643.515625 299.007812 642.546875 298.914062 641.566406 C 298.820312 640.585938 298.777344 639.605469 298.777344 638.621094 L 298.777344 351.585938 C 298.777344 350.601562 298.820312 349.621094 298.914062 348.640625 C 299.007812 347.664062 299.144531 346.691406 299.328125 345.726562 C 299.511719 344.761719 299.738281 343.808594 300.011719 342.867188 C 300.285156 341.925781 300.597656 341 300.957031 340.09375 C 301.316406 339.183594 301.71875 338.296875 302.164062 337.429688 C 302.605469 336.5625 303.085938 335.71875 303.609375 334.898438 C 304.128906 334.082031 304.6875 333.292969 305.285156 332.53125 C 305.882812 331.773438 306.511719 331.042969 307.175781 330.347656 C 307.839844 329.652344 308.535156 328.992188 309.261719 328.371094 C 309.984375 327.746094 310.738281 327.160156 311.519531 326.613281 C 312.300781 326.066406 313.105469 325.5625 313.933594 325.097656 C 314.761719 324.636719 315.609375 324.214844 316.476562 323.839844 C 317.34375 323.460938 318.230469 323.132812 319.128906 322.84375 C 320.027344 322.558594 320.9375 322.320312 321.855469 322.128906 C 322.777344 321.9375 323.707031 321.792969 324.640625 321.695312 C 325.574219 321.601562 326.511719 321.550781 327.453125 321.550781 Z M 327.453125 321.550781 " fill-opacity="1" fill-rule="nonzero"/><path fill="#000000" d="M 421.300781 321.550781 C 422.238281 321.550781 423.175781 321.601562 424.113281 321.695312 C 425.046875 321.792969 425.972656 321.9375 426.894531 322.128906 C 427.816406 322.320312 428.726562 322.558594 429.625 322.84375 C 430.523438 323.132812 431.40625 323.460938 432.273438 323.839844 C 433.140625 324.214844 433.988281 324.636719 434.816406 325.097656 C 435.648438 325.5625 436.449219 326.066406 437.230469 326.613281 C 438.011719 327.160156 438.765625 327.746094 439.492188 328.371094 C 440.21875 328.992188 440.914062 329.652344 441.578125 330.347656 C 442.242188 331.042969 442.871094 331.773438 443.46875 332.53125 C 444.0625 333.292969 444.621094 334.082031 445.144531 334.898438 C 445.664062 335.71875 446.148438 336.5625 446.589844 337.429688 C 447.03125 338.296875 447.433594 339.183594 447.792969 340.09375 C 448.152344 341 448.46875 341.925781 448.742188 342.867188 C 449.015625 343.808594 449.242188 344.761719 449.425781 345.726562 C 449.609375 346.691406 449.746094 347.664062 449.839844 348.640625 C 449.929688 349.621094 449.976562 350.601562 449.976562 351.585938 L 449.976562 638.621094 C 449.976562 639.605469 449.929688 640.585938 449.839844 641.566406 C 449.746094 642.546875 449.609375 643.515625 449.425781 644.480469 C 449.242188 645.445312 449.015625 646.398438 448.742188 647.339844 C 448.46875 648.28125 448.152344 649.207031 447.792969 650.117188 C 447.433594 651.023438 447.03125 651.914062 446.589844 652.78125 C 446.148438 653.648438 445.664062 654.492188 445.144531 655.308594 C 444.621094 656.125 444.0625 656.914062 443.46875 657.675781 C 442.871094 658.4375 442.242188 659.164062 441.578125 659.859375 C 440.914062 660.554688 440.21875 661.214844 439.492188 661.839844 C 438.765625 662.460938 438.011719 663.046875 437.230469 663.59375 C 436.449219 664.140625 435.648438 664.644531 434.816406 665.109375 C 433.988281 665.574219 433.140625 665.992188 432.273438 666.371094 C 431.40625 666.746094 430.523438 667.078125 429.625 667.363281 C 428.726562 667.648438 427.816406 667.886719 426.894531 668.078125 C 425.972656 668.269531 425.046875 668.414062 424.113281 668.511719 C 423.175781 668.609375 422.238281 668.65625 421.300781 668.65625 C 420.363281 668.65625 419.425781 668.609375 418.488281 668.511719 C 417.554688 668.414062 416.628906 668.269531 415.707031 668.078125 C 414.785156 667.886719 413.875 667.648438 412.976562 667.363281 C 412.078125 667.078125 411.195312 666.746094 410.328125 666.371094 C 409.460938 665.992188 408.613281 665.574219 407.785156 665.109375 C 406.953125 664.644531 406.152344 664.140625 405.371094 663.59375 C 404.589844 663.046875 403.835938 662.460938 403.109375 661.839844 C 402.382812 661.214844 401.6875 660.554688 401.023438 659.859375 C 400.359375 659.164062 399.730469 658.4375 399.132812 657.675781 C 398.539062 656.914062 397.980469 656.125 397.457031 655.308594 C 396.9375 654.492188 396.453125 653.648438 396.011719 652.78125 C 395.570312 651.914062 395.167969 651.023438 394.808594 650.117188 C 394.449219 649.207031 394.132812 648.28125 393.859375 647.339844 C 393.585938 646.398438 393.359375 645.445312 393.175781 644.480469 C 392.992188 643.515625 392.855469 642.546875 392.761719 641.566406 C 392.671875 640.585938 392.625 639.605469 392.625 638.621094 L 392.625 351.585938 C 392.625 350.601562 392.671875 349.621094 392.761719 348.640625 C 392.855469 347.664062 392.992188 346.691406 393.175781 345.726562 C 393.359375 344.761719 393.585938 343.808594 393.859375 342.867188 C 394.132812 341.925781 394.449219 341 394.808594 340.09375 C 395.167969 339.183594 395.570312 338.296875 396.011719 337.429688 C 396.453125 336.5625 396.9375 335.71875 397.457031 334.898438 C 397.980469 334.082031 398.539062 333.292969 399.132812 332.53125 C 399.730469 331.773438 400.359375 331.042969 401.023438 330.347656 C 401.6875 329.652344 402.382812 328.992188 403.109375 328.371094 C 403.835938 327.746094 404.589844 327.160156 405.371094 326.613281 C 406.152344 326.066406 406.953125 325.5625 407.785156 325.097656 C 408.613281 324.636719 409.460938 324.214844 410.328125 323.839844 C 411.195312 323.460938 412.078125 323.132812 412.976562 322.84375 C 413.875 322.558594 414.785156 322.320312 415.707031 322.128906 C 416.628906 321.9375 417.554688 321.792969 418.488281 321.695312 C 419.425781 321.601562 420.363281 321.550781 421.300781 321.550781 Z M 421.300781 321.550781 " fill-opacity="1" fill-rule="nonzero"/><path fill="#000000" d="M 515.148438 321.550781 C 516.089844 321.550781 517.027344 321.601562 517.960938 321.695312 C 518.894531 321.792969 519.824219 321.9375 520.746094 322.128906 C 521.664062 322.320312 522.574219 322.558594 523.472656 322.84375 C 524.371094 323.132812 525.257812 323.460938 526.125 323.839844 C 526.992188 324.214844 527.839844 324.636719 528.667969 325.097656 C 529.496094 325.5625 530.300781 326.066406 531.082031 326.613281 C 531.863281 327.160156 532.617188 327.746094 533.339844 328.371094 C 534.066406 328.992188 534.761719 329.652344 535.425781 330.347656 C 536.089844 331.042969 536.71875 331.773438 537.316406 332.53125 C 537.914062 333.292969 538.472656 334.082031 538.992188 334.898438 C 539.515625 335.71875 539.996094 336.5625 540.4375 337.429688 C 540.882812 338.296875 541.28125 339.183594 541.644531 340.09375 C 542.003906 341 542.316406 341.925781 542.589844 342.867188 C 542.863281 343.808594 543.089844 344.761719 543.273438 345.726562 C 543.457031 346.691406 543.59375 347.664062 543.6875 348.640625 C 543.78125 349.621094 543.824219 350.601562 543.824219 351.585938 L 543.824219 638.621094 C 543.824219 639.605469 543.78125 640.585938 543.6875 641.566406 C 543.59375 642.546875 543.457031 643.515625 543.273438 644.480469 C 543.089844 645.445312 542.863281 646.398438 542.589844 647.339844 C 542.316406 648.28125 542 649.207031 541.640625 650.117188 C 541.28125 651.023438 540.882812 651.914062 540.4375 652.78125 C 539.996094 653.648438 539.515625 654.492188 538.992188 655.308594 C 538.472656 656.125 537.914062 656.914062 537.316406 657.675781 C 536.71875 658.4375 536.089844 659.164062 535.425781 659.859375 C 534.761719 660.554688 534.066406 661.214844 533.339844 661.839844 C 532.617188 662.460938 531.863281 663.046875 531.082031 663.59375 C 530.300781 664.140625 529.496094 664.644531 528.667969 665.109375 C 527.839844 665.574219 526.992188 665.992188 526.125 666.371094 C 525.257812 666.746094 524.371094 667.078125 523.472656 667.363281 C 522.574219 667.648438 521.664062 667.886719 520.746094 668.078125 C 519.824219 668.269531 518.894531 668.414062 517.960938 668.511719 C 517.027344 668.609375 516.089844 668.65625 515.148438 668.65625 C 514.210938 668.65625 513.273438 668.609375 512.339844 668.511719 C 511.40625 668.414062 510.476562 668.269531 509.554688 668.078125 C 508.632812 667.886719 507.726562 667.648438 506.824219 667.363281 C 505.925781 667.078125 505.042969 666.746094 504.175781 666.371094 C 503.308594 665.992188 502.460938 665.574219 501.632812 665.109375 C 500.804688 664.644531 500 664.140625 499.21875 663.59375 C 498.4375 663.046875 497.683594 662.460938 496.957031 661.839844 C 496.234375 661.214844 495.539062 660.554688 494.875 659.859375 C 494.210938 659.164062 493.578125 658.4375 492.984375 657.675781 C 492.386719 656.914062 491.828125 656.125 491.308594 655.308594 C 490.785156 654.492188 490.304688 653.648438 489.859375 652.78125 C 489.417969 651.914062 489.015625 651.023438 488.65625 650.117188 C 488.296875 649.207031 487.980469 648.28125 487.710938 647.339844 C 487.4375 646.398438 487.207031 645.445312 487.027344 644.480469 C 486.84375 643.515625 486.703125 642.546875 486.613281 641.566406 C 486.519531 640.585938 486.476562 639.605469 486.476562 638.621094 L 486.476562 351.585938 C 486.476562 350.601562 486.519531 349.621094 486.613281 348.640625 C 486.703125 347.664062 486.84375 346.691406 487.027344 345.726562 C 487.207031 344.761719 487.4375 343.808594 487.710938 342.867188 C 487.980469 341.925781 488.296875 341 488.65625 340.09375 C 489.015625 339.183594 489.417969 338.296875 489.859375 337.429688 C 490.304688 336.5625 490.785156 335.71875 491.308594 334.898438 C 491.828125 334.082031 492.386719 333.292969 492.984375 332.53125 C 493.578125 331.773438 494.210938 331.042969 494.875 330.347656 C 495.539062 329.652344 496.234375 328.992188 496.957031 328.371094 C 497.683594 327.746094 498.4375 327.160156 499.21875 326.613281 C 500 326.066406 500.804688 325.5625 501.632812 325.097656 C 502.460938 324.636719 503.308594 324.214844 504.175781 323.839844 C 505.042969 323.460938 505.925781 323.132812 506.824219 322.84375 C 507.726562 322.558594 508.632812 322.320312 509.554688 322.128906 C 510.476562 321.9375 511.40625 321.792969 512.339844 321.695312 C 513.273438 321.601562 514.210938 321.550781 515.148438 321.550781 Z M 515.148438 321.550781 " fill-opacity="1" fill-rule="nonzero"/><path fill="#000000" d="M 609 321.550781 C 609.9375 321.550781 610.875 321.601562 611.808594 321.695312 C 612.746094 321.792969 613.671875 321.9375 614.59375 322.128906 C 615.515625 322.320312 616.425781 322.558594 617.324219 322.84375 C 618.222656 323.132812 619.105469 323.460938 619.972656 323.839844 C 620.839844 324.214844 621.6875 324.636719 622.515625 325.097656 C 623.34375 325.5625 624.148438 326.066406 624.929688 326.613281 C 625.710938 327.160156 626.464844 327.746094 627.191406 328.371094 C 627.917969 328.992188 628.613281 329.652344 629.277344 330.347656 C 629.941406 331.042969 630.570312 331.773438 631.164062 332.53125 C 631.761719 333.292969 632.320312 334.082031 632.84375 334.898438 C 633.363281 335.71875 633.847656 336.5625 634.289062 337.429688 C 634.730469 338.296875 635.132812 339.183594 635.492188 340.09375 C 635.851562 341 636.167969 341.925781 636.441406 342.867188 C 636.710938 343.808594 636.941406 344.761719 637.125 345.726562 C 637.308594 346.691406 637.445312 347.664062 637.535156 348.640625 C 637.628906 349.621094 637.675781 350.601562 637.675781 351.585938 L 637.675781 638.621094 C 637.675781 639.605469 637.628906 640.585938 637.535156 641.566406 C 637.445312 642.546875 637.308594 643.515625 637.125 644.480469 C 636.941406 645.445312 636.710938 646.398438 636.441406 647.339844 C 636.167969 648.28125 635.851562 649.207031 635.492188 650.117188 C 635.132812 651.023438 634.730469 651.914062 634.289062 652.78125 C 633.847656 653.648438 633.363281 654.492188 632.84375 655.308594 C 632.320312 656.125 631.761719 656.914062 631.164062 657.675781 C 630.570312 658.4375 629.941406 659.164062 629.277344 659.859375 C 628.613281 660.554688 627.917969 661.214844 627.191406 661.839844 C 626.464844 662.460938 625.710938 663.046875 624.929688 663.59375 C 624.148438 664.140625 623.34375 664.644531 622.515625 665.109375 C 621.6875 665.574219 620.839844 665.992188 619.972656 666.371094 C 619.105469 666.746094 618.222656 667.078125 617.324219 667.363281 C 616.425781 667.648438 615.515625 667.886719 614.59375 668.078125 C 613.671875 668.269531 612.746094 668.414062 611.808594 668.511719 C 610.875 668.609375 609.9375 668.65625 609 668.65625 C 608.058594 668.65625 607.125 668.609375 606.1875 668.511719 C 605.253906 668.414062 604.324219 668.269531 603.40625 668.078125 C 602.484375 667.886719 601.574219 667.648438 600.675781 667.363281 C 599.777344 667.078125 598.894531 666.746094 598.027344 666.371094 C 597.15625 665.992188 596.308594 665.574219 595.480469 665.109375 C 594.652344 664.644531 593.847656 664.140625 593.066406 663.59375 C 592.289062 663.046875 591.535156 662.460938 590.808594 661.839844 C 590.082031 661.214844 589.386719 660.554688 588.722656 659.859375 C 588.058594 659.164062 587.429688 658.4375 586.832031 657.675781 C 586.238281 656.914062 585.679688 656.125 585.15625 655.308594 C 584.636719 654.492188 584.152344 653.648438 583.710938 652.78125 C 583.265625 651.914062 582.867188 651.023438 582.507812 650.117188 C 582.148438 649.207031 581.832031 648.28125 581.558594 647.339844 C 581.285156 646.398438 581.058594 645.445312 580.875 644.480469 C 580.691406 643.515625 580.554688 642.546875 580.460938 641.566406 C 580.371094 640.585938 580.324219 639.605469 580.324219 638.621094 L 580.324219 351.585938 C 580.324219 350.601562 580.371094 349.621094 580.460938 348.640625 C 580.554688 347.664062 580.691406 346.691406 580.875 345.726562 C 581.058594 344.761719 581.285156 343.808594 581.558594 342.867188 C 581.832031 341.925781 582.148438 341 582.507812 340.09375 C 582.867188 339.183594 583.265625 338.296875 583.710938 337.429688 C 584.152344 336.5625 584.636719 335.71875 585.15625 334.898438 C 585.679688 334.082031 586.238281 333.292969 586.832031 332.53125 C 587.429688 331.773438 588.058594 331.042969 588.722656 330.347656 C 589.386719 329.652344 590.082031 328.992188 590.808594 328.371094 C 591.535156 327.746094 592.289062 327.160156 593.066406 326.613281 C 593.847656 326.066406 594.652344 325.5625 595.480469 325.097656 C 596.308594 324.636719 597.15625 324.214844 598.027344 323.839844 C 598.894531 323.460938 599.777344 323.132812 600.675781 322.84375 C 601.574219 322.558594 602.484375 322.320312 603.40625 322.128906 C 604.324219 321.9375 605.253906 321.792969 606.1875 321.695312 C 607.125 321.601562 608.058594 321.550781 609 321.550781 Z M 609 321.550781 " fill-opacity="1" fill-rule="nonzero"/><path fill="#000000" d="M 38.859375 702.027344 L 737.636719 702.027344 L 737.636719 737.636719 L 38.859375 737.636719 Z M 38.859375 702.027344 " fill-opacity="1" fill-rule="nonzero"/><path fill="#000000" d="M 352.914062 30.351562 C 349.371094 30.371094 345.328125 31.808594 341 34.769531 L 55.40625 229.863281 C 41.554688 239.335938 30.292969 260.929688 30.292969 278.257812 C 30.292969 289.992188 35.519531 296.726562 43.125 296.882812 C 47.628906 301.109375 53.621094 303.796875 60.171875 303.796875 L 688.722656 303.796875 C 702.84375 303.796875 714.203125 291.898438 714.203125 277.105469 C 714.203125 274.640625 713.878906 272.261719 713.289062 270 C 714.640625 269.246094 713.738281 267.246094 711.085938 264.238281 C 710.945312 264.078125 710.875 264.023438 710.722656 263.855469 C 707.785156 258.484375 703.320312 254.324219 697.707031 252.140625 C 651.410156 214.621094 517.222656 128.382812 435.03125 76.4375 L 373.992188 34.769531 C 367.675781 30.453125 361.886719 29.324219 357.492188 31.121094 C 356.097656 30.542969 354.554688 30.34375 352.910156 30.351562 Z M 352.914062 30.351562 " fill-opacity="1" fill-rule="nonzero"/></svg>