<svg xmlns="http://www.w3.org/2000/svg" xmlns:xlink="http://www.w3.org/1999/xlink" width="1024" zoomAndPan="magnify" viewBox="0 0 768 767.999994" height="1024" preserveAspectRatio="xMidYMid meet" version="1.0"><rect x="-76.8" width="921.6" fill="#ffffff" y="-76.799999" height="921.599993" fill-opacity="1"/><rect x="-76.8" width="921.6" fill="#ffffff" y="-76.799999" height="921.599993" fill-opacity="1"/><rect x="-76.8" width="921.6" fill="#ffffff" y="-76.799999" height="921.599993" fill-opacity="1"/><path fill="#000000" d="M 324.496094 523.148438 L 60.761719 523.148438 C 51.226562 523.148438 42.855469 529.457031 40.246094 538.636719 C 39.488281 541.265625 38.585938 544.398438 37.589844 547.882812 C 24.949219 592.15625 24.949219 639.109375 37.589844 683.382812 C 38.585938 686.847656 39.488281 690 40.246094 692.632812 C 42.855469 701.808594 51.226562 708.117188 60.761719 708.117188 C 60.761719 708.117188 122.972656 708.117188 122.972656 708.117188 C 128.210938 708.117188 132.457031 703.871094 132.457031 698.632812 C 132.457031 693.390625 128.210938 689.148438 122.972656 689.148438 L 60.761719 689.148438 C 59.71875 689.148438 58.769531 688.433594 58.484375 687.414062 C 57.726562 684.78125 56.824219 681.652344 55.828125 678.167969 C 44.160156 637.285156 44.160156 593.960938 55.828125 553.101562 C 56.824219 549.613281 57.726562 546.484375 58.484375 543.828125 C 58.769531 542.832031 59.71875 542.121094 60.761719 542.121094 L 309.4375 542.121094 C 303.152344 552.863281 299.09375 565.101562 297.980469 578.167969 C 297.980469 578.355469 297.957031 578.523438 297.933594 578.710938 L 297.933594 578.734375 C 297.933594 578.902344 297.910156 579.066406 297.910156 579.257812 L 297.886719 579.28125 C 297.886719 579.445312 297.863281 579.613281 297.863281 579.800781 L 297.863281 579.824219 C 297.839844 579.992188 297.839844 580.179688 297.8125 580.347656 L 297.8125 580.371094 C 297.8125 580.539062 297.8125 580.726562 297.789062 580.894531 L 297.789062 580.917969 C 297.789062 581.105469 297.765625 581.273438 297.765625 581.4375 L 297.765625 581.484375 C 297.742188 581.652344 297.742188 581.816406 297.742188 581.984375 L 297.742188 582.03125 C 297.71875 582.199219 297.71875 582.363281 297.71875 582.527344 L 297.71875 582.601562 C 297.71875 582.742188 297.695312 582.933594 297.695312 583.097656 L 297.695312 583.144531 C 297.695312 583.3125 297.695312 583.476562 297.695312 583.644531 L 297.695312 583.691406 C 297.671875 583.855469 297.671875 584.023438 297.671875 584.191406 L 297.671875 584.261719 C 297.671875 584.425781 297.671875 584.59375 297.671875 584.757812 L 297.671875 584.804688 C 297.671875 584.972656 297.671875 585.136719 297.671875 585.304688 L 297.671875 585.375 C 297.671875 585.445312 297.671875 585.539062 297.671875 585.613281 C 297.671875 585.707031 297.671875 585.800781 297.671875 585.875 L 297.671875 587.367188 L 297.695312 587.558594 L 297.695312 587.839844 C 297.695312 588.03125 297.695312 588.195312 297.71875 588.386719 L 297.71875 588.859375 L 297.742188 589.121094 L 297.742188 589.5 L 297.765625 589.597656 L 297.765625 589.855469 L 297.789062 590.09375 L 297.789062 590.332031 C 297.8125 590.496094 297.8125 590.6875 297.8125 590.875 L 297.839844 591.089844 L 297.863281 591.328125 L 297.863281 591.589844 L 297.886719 591.824219 L 297.910156 592.085938 L 297.933594 592.324219 L 297.933594 592.511719 C 297.980469 592.964844 298.003906 593.414062 298.050781 593.863281 L 298.074219 594.03125 L 298.097656 594.292969 L 298.121094 594.433594 C 299.925781 612.359375 307.277344 628.675781 318.402344 641.671875 L 290.984375 689.148438 C 290.984375 689.148438 170.40625 689.148438 170.40625 689.148438 C 165.164062 689.148438 160.917969 693.390625 160.917969 698.632812 C 160.917969 703.871094 165.164062 708.117188 170.40625 708.117188 L 280.027344 708.117188 C 278.320312 711.390625 278.652344 715.351562 280.902344 718.289062 C 283.253906 721.347656 287.1875 722.679688 290.890625 721.683594 L 316.644531 714.78125 C 316.644531 714.78125 323.570312 740.535156 323.570312 740.535156 C 324.542969 744.257812 327.675781 747.007812 331.492188 747.507812 C 335.289062 748.003906 339.011719 746.152344 340.933594 742.835938 L 360.996094 708.117188 L 406.722656 708.117188 L 426.789062 742.835938 C 428.710938 746.152344 432.433594 748.003906 436.226562 747.507812 C 440.046875 747.007812 443.175781 744.257812 444.171875 740.535156 L 451.074219 714.78125 C 451.074219 714.78125 476.832031 721.683594 476.832031 721.683594 C 480.53125 722.679688 484.46875 721.347656 486.816406 718.289062 C 489.070312 715.351562 489.402344 711.390625 487.695312 708.117188 L 706.960938 708.117188 C 716.492188 708.117188 724.867188 701.808594 727.476562 692.632812 C 728.234375 690 729.136719 686.847656 730.132812 683.382812 C 742.773438 639.109375 742.773438 592.15625 730.132812 547.882812 C 729.136719 544.398438 728.234375 541.265625 727.476562 538.636719 C 724.867188 529.457031 716.492188 523.148438 706.960938 523.148438 C 706.960938 523.148438 644.75 523.148438 644.75 523.148438 C 639.507812 523.148438 635.261719 527.394531 635.261719 532.636719 C 635.261719 537.875 639.507812 542.121094 644.75 542.121094 L 706.960938 542.121094 C 708.027344 542.121094 708.953125 542.832031 709.234375 543.828125 C 709.996094 546.484375 710.894531 549.613281 711.867188 553.101562 C 723.5625 593.960938 723.5625 637.285156 711.867188 678.167969 C 710.894531 681.652344 709.996094 684.78125 709.234375 687.414062 C 708.953125 688.433594 708.027344 689.148438 706.960938 689.148438 L 476.761719 689.148438 C 476.761719 689.148438 449.460938 641.503906 449.460938 641.503906 C 460.5625 628.488281 467.867188 612.125 469.644531 594.148438 L 469.644531 594.007812 L 469.667969 593.769531 L 469.691406 593.507812 L 469.714844 593.34375 C 469.742188 592.964844 469.765625 592.609375 469.8125 592.253906 L 469.8125 592.0625 L 469.835938 591.800781 L 469.859375 591.5625 L 469.859375 591.328125 L 469.882812 591.066406 L 469.90625 590.828125 L 469.90625 590.59375 C 469.929688 590.425781 469.929688 590.234375 469.953125 590.046875 L 469.953125 589.597656 L 469.976562 589.335938 L 469.976562 589.097656 L 470 588.957031 L 470 588.363281 L 470.023438 588.125 C 470.023438 588.03125 470.023438 587.9375 470.023438 587.839844 L 470.023438 587.605469 L 470.050781 587.367188 L 470.050781 585.875 C 470.050781 585.800781 470.050781 585.707031 470.050781 585.613281 C 470.050781 585.539062 470.050781 585.445312 470.050781 585.375 L 470.050781 585.304688 C 470.050781 585.136719 470.050781 584.972656 470.050781 584.804688 L 470.050781 584.757812 C 470.050781 584.59375 470.050781 584.425781 470.050781 584.261719 L 470.050781 584.191406 C 470.050781 584.023438 470.050781 583.855469 470.023438 583.691406 L 470.023438 583.644531 C 470.023438 583.476562 470.023438 583.3125 470.023438 583.144531 L 470.023438 583.097656 C 470 582.933594 470 582.742188 470 582.601562 L 470 582.527344 C 470 582.363281 470 582.199219 469.976562 582.03125 L 469.976562 581.984375 C 469.976562 581.816406 469.953125 581.652344 469.953125 581.484375 L 469.953125 581.4375 C 469.953125 581.273438 469.929688 581.105469 469.929688 580.917969 L 469.929688 580.894531 C 469.90625 580.726562 469.90625 580.539062 469.90625 580.371094 L 469.90625 580.347656 C 469.882812 580.179688 469.882812 579.992188 469.859375 579.824219 L 469.859375 579.800781 C 469.859375 579.613281 469.835938 579.445312 469.835938 579.28125 L 469.8125 579.257812 C 469.8125 579.066406 469.789062 578.902344 469.789062 578.710938 C 469.765625 578.523438 469.765625 578.355469 469.742188 578.167969 C 468.625 565.101562 464.570312 552.863281 458.285156 542.121094 C 458.285156 542.121094 597.316406 542.121094 597.316406 542.121094 C 602.554688 542.121094 606.800781 537.875 606.800781 532.636719 C 606.800781 527.394531 602.554688 523.148438 597.316406 523.148438 L 443.222656 523.148438 C 427.761719 508.449219 406.84375 499.4375 383.859375 499.4375 C 360.878906 499.4375 339.960938 508.449219 324.496094 523.148438 Z M 343.875 661.96875 C 339.9375 659.90625 336.1875 657.558594 332.65625 654.925781 L 308.109375 697.445312 L 320.914062 694.007812 C 325.964844 692.65625 331.160156 695.644531 332.535156 700.71875 C 332.535156 700.71875 335.953125 713.523438 335.953125 713.523438 C 335.953125 713.523438 361.566406 669.179688 361.707031 668.917969 C 355.472656 667.257812 349.492188 664.910156 343.875 661.96875 Z M 406.011719 668.917969 L 431.769531 713.523438 L 435.183594 700.71875 C 436.558594 695.644531 441.753906 692.65625 446.804688 694.007812 C 446.804688 694.007812 459.613281 697.445312 459.613281 697.445312 L 435.066406 654.925781 C 432.90625 656.539062 430.65625 658.035156 428.332031 659.433594 L 428.1875 659.527344 L 427.972656 659.671875 L 427.878906 659.71875 L 427.761719 659.789062 L 427.640625 659.859375 L 427.429688 659.980469 L 427.308594 660.050781 C 420.71875 663.914062 413.578125 666.925781 406.011719 668.917969 Z M 385.757812 671.789062 C 385.117188 671.789062 384.5 671.789062 383.859375 671.789062 C 383.21875 671.789062 382.601562 671.789062 381.964844 671.789062 L 371.929688 689.148438 L 395.789062 689.148438 Z M 432.3125 539.0625 C 420.101562 526.328125 402.90625 518.40625 383.859375 518.40625 C 364.839844 518.40625 347.644531 526.328125 335.40625 539.0625 C 335.359375 539.109375 335.3125 539.15625 335.289062 539.179688 C 324.996094 549.945312 318.257812 564.082031 316.882812 579.753906 L 316.882812 579.992188 L 316.859375 580.179688 L 316.835938 580.394531 L 316.835938 580.609375 L 316.8125 580.820312 L 316.789062 581.035156 L 316.789062 581.25 L 316.765625 581.390625 L 316.765625 581.675781 L 316.742188 581.792969 L 316.742188 582.101562 L 316.714844 582.222656 L 316.714844 582.527344 L 316.695312 582.648438 L 316.695312 583.167969 L 316.667969 583.265625 L 316.667969 583.90625 L 316.644531 584.117188 L 316.644531 587.152344 L 316.667969 587.367188 L 316.667969 588.007812 L 316.695312 588.21875 L 316.695312 588.457031 L 316.714844 588.671875 L 316.714844 589.097656 L 316.742188 589.3125 L 316.765625 589.523438 L 316.765625 589.761719 L 316.789062 589.976562 L 316.789062 590.1875 L 316.835938 590.617188 L 316.835938 590.828125 L 316.859375 591.042969 L 316.882812 591.28125 L 316.90625 591.492188 L 316.90625 591.707031 L 316.929688 591.921875 L 316.953125 592.132812 L 316.976562 592.347656 C 318.566406 608.425781 325.847656 622.84375 336.78125 633.5625 C 339.34375 636.074219 342.09375 638.375 345.011719 640.460938 C 347.855469 642.476562 350.847656 644.257812 353.976562 645.820312 L 354.144531 645.917969 L 354.238281 645.964844 L 354.402344 646.035156 L 354.570312 646.128906 L 354.734375 646.199219 C 363.179688 650.28125 372.617188 652.628906 382.554688 652.816406 L 383.859375 652.816406 C 383.859375 652.816406 384.074219 652.816406 384.074219 652.816406 L 385.378906 652.816406 L 385.589844 652.792969 C 392.945312 652.628906 399.988281 651.25 406.558594 648.878906 L 406.746094 648.832031 L 406.914062 648.761719 L 406.984375 648.738281 L 407.175781 648.667969 L 407.269531 648.644531 C 416.210938 645.300781 424.273438 640.128906 430.9375 633.5625 C 430.988281 633.539062 431.011719 633.515625 431.035156 633.488281 L 431.105469 633.417969 C 442.179688 622.464844 449.484375 607.691406 450.835938 591.257812 L 450.863281 591.042969 L 450.886719 590.828125 L 450.910156 590.617188 L 450.910156 590.402344 L 450.933594 590.164062 L 450.933594 589.953125 L 450.980469 589.523438 L 450.980469 589.097656 L 451.003906 588.886719 L 451.003906 588.671875 L 451.027344 588.433594 L 451.027344 588.007812 L 451.050781 587.792969 L 451.050781 587.367188 L 451.074219 587.152344 L 451.074219 585.613281 C 451.074219 585.613281 451.074219 585.398438 451.074219 585.398438 L 451.074219 584.117188 L 451.050781 583.90625 L 451.050781 583.265625 L 451.027344 583.167969 L 451.027344 582.648438 L 451.003906 582.527344 L 451.003906 582.222656 L 450.980469 582.101562 L 450.980469 581.675781 L 450.957031 581.582031 L 450.957031 581.390625 L 450.933594 581.25 L 450.933594 581.035156 L 450.910156 580.820312 L 450.886719 580.609375 L 450.886719 580.394531 L 450.863281 580.179688 L 450.835938 579.992188 L 450.835938 579.753906 C 449.460938 564.082031 442.726562 549.945312 432.457031 539.179688 C 432.410156 539.15625 432.363281 539.109375 432.3125 539.0625 Z M 160.917969 210.671875 L 160.917969 263.816406 C 160.917969 269.058594 165.164062 273.300781 170.40625 273.300781 C 175.648438 273.300781 179.890625 269.058594 179.890625 263.816406 L 179.890625 217.433594 L 356.773438 280.488281 L 358.175781 280.984375 C 374.847656 286.9375 392.871094 286.9375 409.546875 280.984375 L 587.828125 217.433594 C 587.828125 217.433594 587.828125 372.402344 587.828125 372.402344 C 587.828125 373.753906 587.210938 375.082031 586.027344 375.507812 L 403.164062 440.699219 C 390.644531 445.15625 377.078125 445.15625 364.554688 440.699219 C 364.554688 440.699219 181.695312 375.507812 181.695312 375.507812 C 180.507812 375.082031 179.890625 373.753906 179.890625 372.402344 L 179.890625 311.242188 C 179.890625 306.003906 175.648438 301.757812 170.40625 301.757812 C 165.164062 301.757812 160.917969 306.003906 160.917969 311.242188 L 160.917969 372.402344 C 160.917969 381.980469 166.847656 390.351562 175.339844 393.363281 C 205.414062 404.105469 311.378906 441.882812 358.175781 458.554688 C 374.847656 464.503906 392.871094 464.503906 409.546875 458.554688 C 456.339844 441.882812 562.308594 404.105469 592.40625 393.363281 C 600.871094 390.351562 606.800781 381.980469 606.800781 372.402344 L 606.800781 210.671875 L 658.980469 192.058594 L 658.980469 362.417969 C 645.269531 366.496094 635.261719 379.207031 635.261719 394.242188 L 635.261719 436.925781 C 635.261719 440.699219 636.757812 444.324219 639.4375 446.980469 C 642.09375 449.660156 645.722656 451.15625 649.492188 451.15625 C 658.578125 451.15625 678.355469 451.15625 687.441406 451.15625 C 691.210938 451.15625 694.839844 449.660156 697.496094 446.980469 C 700.175781 444.324219 701.671875 440.699219 701.671875 436.925781 L 701.671875 394.242188 C 701.671875 379.207031 691.660156 366.496094 677.953125 362.417969 L 677.953125 185.300781 L 730.273438 166.636719 C 735.941406 164.621094 739.738281 159.261719 739.738281 153.238281 C 739.738281 147.238281 735.941406 141.855469 730.273438 139.839844 L 410.945312 25.992188 C 393.417969 19.753906 374.300781 19.753906 356.773438 25.992188 C 287.6875 50.628906 89.316406 121.34375 37.445312 139.839844 C 31.777344 141.855469 27.984375 147.238281 27.984375 153.238281 C 27.984375 159.261719 31.777344 164.621094 37.445312 166.636719 Z M 682.695312 394.242188 L 682.695312 432.183594 L 654.238281 432.183594 L 654.238281 394.242188 C 654.238281 386.390625 660.617188 380.015625 668.464844 380.015625 C 676.316406 380.015625 682.695312 386.390625 682.695312 394.242188 Z M 711.371094 153.238281 L 404.566406 262.628906 C 391.1875 267.398438 376.53125 267.398438 363.15625 262.628906 L 56.351562 153.238281 L 363.15625 43.871094 C 376.53125 39.082031 391.1875 39.082031 404.566406 43.871094 Z M 711.371094 153.238281 " fill-opacity="1" fill-rule="evenodd"/></svg>