<svg xmlns="http://www.w3.org/2000/svg" xmlns:xlink="http://www.w3.org/1999/xlink" width="1024" zoomAndPan="magnify" viewBox="0 0 768 767.999994" height="1024" preserveAspectRatio="xMidYMid meet" version="1.0"><defs><clipPath id="1edcb384d6"><path d="M 42.71875 1 L 725.21875 1 L 725.21875 767 L 42.71875 767 Z M 42.71875 1 " clip-rule="nonzero"/></clipPath></defs><rect x="-76.8" width="921.6" fill="#ffffff" y="-76.799999" height="921.599993" fill-opacity="1"/><rect x="-76.8" width="921.6" fill="#ffffff" y="-76.799999" height="921.599993" fill-opacity="1"/><rect x="-76.8" width="921.6" fill="#00285d" y="-76.799999" height="921.599993" fill-opacity="1"/><g clip-path="url(#1edcb384d6)"><path fill="#e8d743" d="M 698.558594 118.441406 L 676.164062 118.441406 C 675.097656 118.441406 672.964844 119.507812 671.898438 119.507812 L 671.898438 73.648438 C 671.898438 34.1875 639.90625 1.128906 599.382812 1.128906 L 166.421875 1.128906 C 126.964844 1.128906 93.90625 33.121094 93.90625 73.648438 L 93.90625 119.507812 C 92.839844 119.507812 90.707031 118.441406 89.640625 118.441406 L 67.246094 118.441406 C 54.449219 118.441406 42.71875 129.105469 42.71875 142.972656 L 42.71875 274.152344 C 42.71875 286.949219 53.382812 298.679688 67.246094 298.679688 L 89.640625 298.679688 C 90.707031 298.679688 92.839844 297.613281 93.90625 297.613281 L 93.90625 585.566406 C 93.90625 619.695312 117.367188 647.425781 149.359375 655.957031 L 149.359375 742.34375 C 149.359375 755.140625 160.023438 766.871094 173.886719 766.871094 L 254.933594 766.871094 C 267.730469 766.871094 279.460938 756.207031 279.460938 742.34375 L 279.460938 658.089844 L 488.476562 658.089844 L 488.476562 742.34375 C 488.476562 755.140625 499.140625 766.871094 513.003906 766.871094 L 594.050781 766.871094 C 606.847656 766.871094 618.578125 756.207031 618.578125 742.34375 L 618.578125 655.957031 C 649.503906 648.492188 674.03125 619.695312 674.03125 585.566406 L 674.03125 297.613281 C 675.097656 297.613281 677.230469 298.679688 678.296875 298.679688 L 700.691406 298.679688 C 713.488281 298.679688 725.21875 288.015625 725.21875 274.152344 L 725.21875 141.90625 C 723.085938 129.105469 711.355469 118.441406 698.558594 118.441406 Z M 189.882812 37.386719 L 576.988281 37.386719 L 576.988281 59.785156 L 189.882812 59.785156 Z M 194.148438 613.296875 C 169.621094 613.296875 150.425781 594.101562 150.425781 569.570312 C 150.425781 545.042969 169.621094 525.84375 194.148438 525.84375 C 218.675781 525.84375 237.871094 545.042969 237.871094 569.570312 C 237.871094 593.035156 217.609375 613.296875 194.148438 613.296875 Z M 571.65625 613.296875 C 547.128906 613.296875 527.933594 594.101562 527.933594 569.570312 C 527.933594 545.042969 547.128906 525.84375 571.65625 525.84375 C 596.183594 525.84375 615.378906 545.042969 615.378906 569.570312 C 615.378906 593.035156 596.183594 613.296875 571.65625 613.296875 Z M 642.039062 446.921875 L 123.765625 446.921875 L 123.765625 109.910156 L 642.039062 109.910156 Z M 642.039062 446.921875 " fill-opacity="1" fill-rule="nonzero"/></g></svg>