<svg xmlns="http://www.w3.org/2000/svg" xmlns:xlink="http://www.w3.org/1999/xlink" width="1024" zoomAndPan="magnify" viewBox="0 0 768 767.999994" height="1024" preserveAspectRatio="xMidYMid meet" version="1.0"><defs><clipPath id="4657b660cd"><path d="M 372 226 L 653.710938 226 L 653.710938 542 L 372 542 Z M 372 226 " clip-rule="nonzero"/></clipPath><clipPath id="ff4a727c4b"><path d="M 114.460938 24.613281 L 576 24.613281 L 576 743.113281 L 114.460938 743.113281 Z M 114.460938 24.613281 " clip-rule="nonzero"/></clipPath></defs><rect x="-76.8" width="921.6" fill="#ffffff" y="-76.799999" height="921.599993" fill-opacity="1"/><rect x="-76.8" width="921.6" fill="#ffffff" y="-76.799999" height="921.599993" fill-opacity="1"/><rect x="-76.8" width="921.6" fill="#ffffff" y="-76.799999" height="921.599993" fill-opacity="1"/><g clip-path="url(#4657b660cd)"><path fill="#004aad" d="M 620.007812 226.691406 L 406.554688 226.691406 C 388.015625 226.691406 372.851562 241.847656 372.851562 260.371094 L 372.851562 507.355469 C 372.851562 525.878906 388.015625 541.035156 406.554688 541.035156 L 620.007812 541.035156 C 638.542969 541.035156 653.710938 525.878906 653.710938 507.355469 L 653.710938 260.371094 C 653.710938 241.847656 638.542969 226.691406 620.007812 226.691406 Z M 631.242188 507.355469 C 631.242188 513.53125 626.1875 518.582031 620.007812 518.582031 L 406.554688 518.582031 C 400.375 518.582031 395.320312 513.53125 395.320312 507.355469 L 395.320312 260.371094 C 395.320312 254.199219 400.375 249.144531 406.554688 249.144531 L 620.007812 249.144531 C 626.1875 249.144531 631.242188 254.199219 631.242188 260.371094 Z M 631.242188 507.355469 " fill-opacity="1" fill-rule="nonzero"/></g><path fill="#004aad" d="M 226.804688 269.914062 C 226.804688 257.566406 216.691406 247.460938 204.335938 247.460938 L 181.867188 247.460938 C 169.507812 247.460938 159.398438 257.566406 159.398438 269.914062 L 159.398438 292.367188 C 159.398438 304.714844 169.507812 314.820312 181.867188 314.820312 L 204.335938 314.820312 C 216.691406 314.820312 226.804688 304.714844 226.804688 292.367188 Z M 181.867188 292.367188 L 181.867188 269.914062 L 204.335938 269.914062 L 204.335938 292.367188 Z M 181.867188 292.367188 " fill-opacity="1" fill-rule="nonzero"/><path fill="#004aad" d="M 339.148438 254.757812 L 260.507812 254.757812 C 254.328125 254.757812 249.273438 259.8125 249.273438 265.984375 C 249.273438 272.160156 254.328125 277.210938 260.507812 277.210938 L 339.148438 277.210938 C 345.328125 277.210938 350.382812 272.160156 350.382812 265.984375 C 350.382812 259.8125 345.328125 254.757812 339.148438 254.757812 Z M 339.148438 254.757812 " fill-opacity="1" fill-rule="nonzero"/><path fill="#004aad" d="M 260.507812 310.890625 L 316.679688 310.890625 C 322.859375 310.890625 327.914062 305.839844 327.914062 299.664062 C 327.914062 293.492188 322.859375 288.4375 316.679688 288.4375 L 260.507812 288.4375 C 254.328125 288.4375 249.273438 293.492188 249.273438 299.664062 C 249.273438 305.839844 254.328125 310.890625 260.507812 310.890625 Z M 260.507812 310.890625 " fill-opacity="1" fill-rule="nonzero"/><path fill="#004aad" d="M 226.804688 359.726562 C 226.804688 347.378906 216.691406 337.273438 204.335938 337.273438 L 181.867188 337.273438 C 169.507812 337.273438 159.398438 347.378906 159.398438 359.726562 L 159.398438 382.179688 C 159.398438 394.527344 169.507812 404.632812 181.867188 404.632812 L 204.335938 404.632812 C 216.691406 404.632812 226.804688 394.527344 226.804688 382.179688 Z M 181.867188 382.179688 L 181.867188 359.726562 L 204.335938 359.726562 L 204.335938 382.179688 Z M 181.867188 382.179688 " fill-opacity="1" fill-rule="nonzero"/><path fill="#004aad" d="M 260.507812 367.023438 L 339.148438 367.023438 C 345.328125 367.023438 350.382812 361.972656 350.382812 355.796875 C 350.382812 349.621094 345.328125 344.570312 339.148438 344.570312 L 260.507812 344.570312 C 254.328125 344.570312 249.273438 349.621094 249.273438 355.796875 C 249.273438 361.972656 254.328125 367.023438 260.507812 367.023438 Z M 260.507812 367.023438 " fill-opacity="1" fill-rule="nonzero"/><path fill="#004aad" d="M 260.507812 400.703125 L 316.679688 400.703125 C 322.859375 400.703125 327.914062 395.652344 327.914062 389.476562 C 327.914062 383.300781 322.859375 378.25 316.679688 378.25 L 260.507812 378.25 C 254.328125 378.25 249.273438 383.300781 249.273438 389.476562 C 249.273438 395.652344 254.328125 400.703125 260.507812 400.703125 Z M 260.507812 400.703125 " fill-opacity="1" fill-rule="nonzero"/><path fill="#004aad" d="M 226.804688 449.539062 C 226.804688 437.191406 216.691406 427.085938 204.335938 427.085938 L 181.867188 427.085938 C 169.507812 427.085938 159.398438 437.191406 159.398438 449.539062 L 159.398438 471.992188 C 159.398438 484.339844 169.507812 494.445312 181.867188 494.445312 L 204.335938 494.445312 C 216.691406 494.445312 226.804688 484.339844 226.804688 471.992188 Z M 181.867188 471.992188 L 181.867188 449.539062 L 204.335938 449.539062 L 204.335938 471.992188 Z M 181.867188 471.992188 " fill-opacity="1" fill-rule="nonzero"/><path fill="#004aad" d="M 260.507812 456.835938 L 339.148438 456.835938 C 345.328125 456.835938 350.382812 451.785156 350.382812 445.609375 C 350.382812 439.433594 345.328125 434.382812 339.148438 434.382812 L 260.507812 434.382812 C 254.328125 434.382812 249.273438 439.433594 249.273438 445.609375 C 249.273438 451.785156 254.328125 456.835938 260.507812 456.835938 Z M 260.507812 456.835938 " fill-opacity="1" fill-rule="nonzero"/><path fill="#004aad" d="M 260.507812 490.515625 L 316.679688 490.515625 C 322.859375 490.515625 327.914062 485.464844 327.914062 479.289062 C 327.914062 473.113281 322.859375 468.0625 316.679688 468.0625 L 260.507812 468.0625 C 254.328125 468.0625 249.273438 473.113281 249.273438 479.289062 C 249.273438 485.464844 254.328125 490.515625 260.507812 490.515625 Z M 260.507812 490.515625 " fill-opacity="1" fill-rule="nonzero"/><path fill="#004aad" d="M 226.804688 539.351562 C 226.804688 527 216.691406 516.898438 204.335938 516.898438 L 181.867188 516.898438 C 169.507812 516.898438 159.398438 527 159.398438 539.351562 L 159.398438 561.804688 C 159.398438 574.152344 169.507812 584.257812 181.867188 584.257812 L 204.335938 584.257812 C 216.691406 584.257812 226.804688 574.152344 226.804688 561.804688 Z M 181.867188 561.804688 L 181.867188 539.351562 L 204.335938 539.351562 L 204.335938 561.804688 Z M 181.867188 561.804688 " fill-opacity="1" fill-rule="nonzero"/><path fill="#004aad" d="M 260.507812 546.648438 L 339.148438 546.648438 C 345.328125 546.648438 350.382812 541.597656 350.382812 535.421875 C 350.382812 529.246094 345.328125 524.195312 339.148438 524.195312 L 260.507812 524.195312 C 254.328125 524.195312 249.273438 529.246094 249.273438 535.421875 C 249.273438 541.597656 254.328125 546.648438 260.507812 546.648438 Z M 260.507812 546.648438 " fill-opacity="1" fill-rule="nonzero"/><path fill="#004aad" d="M 260.507812 580.328125 L 316.679688 580.328125 C 322.859375 580.328125 327.914062 575.277344 327.914062 569.101562 C 327.914062 562.925781 322.859375 557.875 316.679688 557.875 L 260.507812 557.875 C 254.328125 557.875 249.273438 562.925781 249.273438 569.101562 C 249.273438 575.277344 254.328125 580.328125 260.507812 580.328125 Z M 260.507812 580.328125 " fill-opacity="1" fill-rule="nonzero"/><path fill="#004aad" d="M 204.335938 606.710938 L 181.867188 606.710938 C 169.507812 606.710938 159.398438 616.8125 159.398438 629.164062 L 159.398438 651.617188 C 159.398438 663.964844 169.507812 674.070312 181.867188 674.070312 L 204.335938 674.070312 C 216.691406 674.070312 226.804688 663.964844 226.804688 651.617188 L 226.804688 629.164062 C 226.804688 616.8125 216.691406 606.710938 204.335938 606.710938 Z M 181.867188 651.617188 L 181.867188 629.164062 L 204.335938 629.164062 L 204.335938 651.617188 Z M 181.867188 651.617188 " fill-opacity="1" fill-rule="nonzero"/><path fill="#004aad" d="M 451.492188 614.007812 L 260.507812 614.007812 C 254.328125 614.007812 249.273438 619.058594 249.273438 625.234375 C 249.273438 631.40625 254.328125 636.460938 260.507812 636.460938 L 451.492188 636.460938 C 457.671875 636.460938 462.726562 631.40625 462.726562 625.234375 C 462.726562 619.058594 457.671875 614.007812 451.492188 614.007812 Z M 451.492188 614.007812 " fill-opacity="1" fill-rule="nonzero"/><path fill="#004aad" d="M 249.273438 658.914062 C 249.273438 665.085938 254.328125 670.140625 260.507812 670.140625 L 496.429688 670.140625 C 502.609375 670.140625 507.664062 665.085938 507.664062 658.914062 C 507.664062 652.738281 502.609375 647.6875 496.429688 647.6875 L 260.507812 647.6875 C 254.328125 647.6875 249.273438 652.738281 249.273438 658.914062 Z M 249.273438 658.914062 " fill-opacity="1" fill-rule="nonzero"/><path fill="#004aad" d="M 583.496094 314.257812 L 476.769531 429.332031 L 443.066406 393.40625 C 438.570312 388.914062 431.832031 388.355469 427.335938 392.84375 C 422.84375 397.335938 422.28125 404.070312 426.777344 408.5625 L 468.90625 453.46875 C 471.152344 455.714844 473.960938 456.835938 477.332031 456.835938 C 480.699219 456.835938 483.507812 455.714844 485.757812 453.46875 L 600.910156 329.976562 C 605.402344 325.484375 604.839844 318.1875 600.347656 314.257812 C 595.292969 309.769531 587.988281 309.769531 583.496094 314.257812 Z M 583.496094 314.257812 " fill-opacity="1" fill-rule="nonzero"/><g clip-path="url(#ff4a727c4b)"><path fill="#004aad" d="M 552.601562 709.433594 C 552.601562 715.605469 547.546875 720.660156 541.367188 720.660156 L 148.164062 720.660156 C 141.984375 720.660156 136.929688 715.605469 136.929688 709.433594 L 136.929688 170.558594 C 136.929688 164.386719 141.984375 159.332031 148.164062 159.332031 L 215.570312 159.332031 L 215.570312 187.398438 C 215.570312 193.574219 220.625 198.625 226.804688 198.625 L 462.726562 198.625 C 468.90625 198.625 473.960938 193.574219 473.960938 187.398438 L 473.960938 159.332031 L 541.367188 159.332031 C 547.546875 159.332031 552.601562 164.386719 552.601562 170.558594 L 552.601562 204.238281 L 575.070312 204.238281 L 575.070312 170.558594 C 575.070312 152.035156 559.902344 136.878906 541.367188 136.878906 L 473.960938 136.878906 L 473.960938 108.8125 C 473.960938 102.640625 468.90625 97.585938 462.726562 97.585938 L 422.84375 97.585938 C 420.035156 56.609375 386.332031 24.617188 344.765625 24.617188 C 303.199219 24.617188 269.496094 56.609375 266.6875 97.585938 L 226.804688 97.585938 C 220.625 97.585938 215.570312 102.640625 215.570312 108.8125 L 215.570312 136.878906 L 148.164062 136.878906 C 129.625 136.878906 114.460938 152.035156 114.460938 170.558594 L 114.460938 709.433594 C 114.460938 727.957031 129.625 743.113281 148.164062 743.113281 L 541.367188 743.113281 C 559.902344 743.113281 575.070312 727.957031 575.070312 709.433594 L 575.070312 563.488281 L 552.601562 563.488281 Z M 344.765625 47.070312 C 373.972656 47.070312 397.566406 69.523438 400.375 97.585938 L 289.15625 97.585938 C 291.964844 69.523438 315.554688 47.070312 344.765625 47.070312 Z M 238.039062 120.039062 L 451.492188 120.039062 L 451.492188 176.171875 L 238.039062 176.171875 Z M 238.039062 120.039062 " fill-opacity="1" fill-rule="nonzero"/></g></svg>